<svg width="325" height="216" viewBox="0 0 325 216" fill="none" xmlns="http://www.w3.org/2000/svg">
<g clip-path="url(#clip0_312_1270)">
<rect width="325" height="216" fill="white"/>
<path d="M163.132 199C186.108 199 204.733 196.344 204.733 193.068C204.733 189.792 186.108 187.136 163.132 187.136C140.156 187.136 121.531 189.792 121.531 193.068C121.531 196.344 140.156 199 163.132 199Z" fill="#D7CCC2"/>
<g opacity="0.6">
<path d="M236.3 104.091H219.707C218.667 104.091 217.904 105.072 218.16 106.085C218.498 107.398 218.651 108.787 218.596 110.225C218.297 117.584 212.288 123.56 204.929 123.827C196.84 124.127 190.183 117.655 190.183 109.626C190.183 109.097 190.21 108.58 190.27 108.068C189.344 108.308 188.375 108.427 187.372 108.427H187.138C183.526 108.357 180.236 106.728 177.992 104.091H166.416C164.946 104.091 163.753 102.898 163.753 101.428V77.9769C163.753 76.8275 162.581 76.0268 161.525 76.4789C159.809 77.2143 157.913 77.6228 155.925 77.6228C150.979 77.6228 146.615 75.0898 144.072 71.2495C143.592 70.525 143.178 69.7569 142.835 68.9507C142.405 67.9266 142.089 66.8426 141.903 65.7096C141.784 64.9905 141.724 64.2497 141.718 63.4979V63.3618C141.74 55.6375 148.081 49.2696 155.805 49.2042C157.842 49.1824 159.782 49.5964 161.541 50.3536C162.587 50.8057 163.753 50.0213 163.753 48.8774V42.1663C164.641 42.1717 165.512 42.1826 166.378 42.1989C167.277 42.2153 168.16 42.2371 169.031 42.2589C169.162 42.2589 169.293 42.2698 169.423 42.2752C169.805 42.2861 170.18 42.297 170.551 42.3133C171.008 42.3297 171.461 42.346 171.907 42.3678C173.89 42.4495 175.813 42.5585 177.671 42.6892C178.074 42.7164 178.477 42.7437 178.874 42.7764C179.419 42.8199 179.958 42.8635 180.492 42.9071C180.955 42.9452 181.418 42.9834 181.87 43.0269C184.594 43.2775 187.176 43.5771 189.622 43.9094C190.025 43.9639 190.428 44.0183 190.831 44.0783C192.291 44.2907 193.707 44.5141 195.069 44.7483C195.396 44.8028 195.717 44.8572 196.039 44.9172C198.626 45.3802 201.023 45.8813 203.235 46.4043C203.485 46.4642 203.736 46.5241 203.981 46.584C204.15 46.6222 204.319 46.6657 204.482 46.7039C204.727 46.7692 204.967 46.8292 205.207 46.8891C205.588 46.9871 205.964 47.0797 206.329 47.1778C206.83 47.314 207.326 47.4447 207.805 47.5809C208.045 47.6463 208.284 47.7116 208.519 47.7824C208.993 47.9132 209.456 48.0494 209.908 48.1855C210.017 48.2237 210.126 48.2564 210.235 48.289C210.469 48.3599 210.698 48.4307 210.921 48.5015H210.926C211.024 48.5342 211.122 48.5669 211.221 48.5941C211.651 48.7303 212.07 48.8665 212.473 49.0026C212.642 49.0571 212.811 49.1116 212.975 49.1715C213.045 49.1933 213.116 49.2151 213.187 49.2423C213.547 49.3622 213.895 49.4875 214.233 49.6073C214.494 49.6999 214.75 49.7925 215.001 49.8851C215.192 49.9559 215.382 50.0267 215.568 50.0976C216.194 50.3263 216.782 50.5606 217.343 50.7839C217.501 50.8493 217.654 50.9092 217.806 50.9746C218.574 51.2905 219.272 51.5956 219.914 51.8843C220.105 51.9714 220.29 52.064 220.47 52.1566C220.497 52.1675 220.53 52.1839 220.557 52.2057C220.742 52.2983 220.922 52.4018 221.097 52.5107C221.467 52.7286 221.816 52.9683 222.153 53.2298C222.181 53.2461 222.213 53.2679 222.24 53.2951C222.398 53.4204 222.551 53.5457 222.698 53.6764C222.867 53.8181 223.025 53.9651 223.183 54.1177C223.341 54.2702 223.493 54.4282 223.64 54.5916C223.782 54.7441 223.918 54.9021 224.049 55.0601C224.06 55.071 224.071 55.0818 224.082 55.0982C224.12 55.1472 224.158 55.1962 224.196 55.2453C224.234 55.2943 224.272 55.3433 224.305 55.3978C224.338 55.4305 224.365 55.4686 224.392 55.5067C224.419 55.5394 224.447 55.5721 224.468 55.6102C224.599 55.7845 224.724 55.9643 224.839 56.1495C225.068 56.5036 225.275 56.8686 225.465 57.2499C225.482 57.288 225.498 57.3152 225.509 57.3479C225.601 57.5277 225.683 57.7129 225.759 57.9036C225.847 58.1051 225.923 58.3121 225.999 58.5245C226.146 58.944 226.271 59.3743 226.37 59.8101L236.3 104.091Z" fill="#FFF2E0"/>
<path d="M210.921 48.507H210.915C208.611 45.8215 203.79 43.5663 196.491 41.7687C189.725 40.0963 181.369 38.9687 172.277 38.473C171.667 38.4403 171.063 38.4077 170.452 38.3804C170.098 38.3641 169.739 38.3477 169.379 38.3314C167.527 38.2606 165.67 38.2061 163.812 38.1843H163.747V40.3633C181.38 40.5703 196.567 43.0815 204.476 46.7039C208.202 48.4089 210.316 50.3536 210.316 52.4291C210.316 56.8033 200.87 60.6382 186.734 62.7572C185.906 62.8879 185.073 62.9968 184.223 63.1058C182.998 63.2638 181.75 63.4108 180.486 63.5416C180.127 63.5852 179.762 63.6233 179.397 63.6505C178.422 63.7431 177.436 63.8303 176.439 63.9066C175.922 63.9501 175.404 63.9883 174.881 64.0264C174.336 64.0645 173.792 64.1027 173.241 64.1353C172.691 64.1735 172.141 64.2062 171.591 64.2334C170.839 64.277 170.082 64.3097 169.319 64.3423C168.181 64.3859 167.037 64.424 165.898 64.4513C165.517 64.4622 165.136 64.4676 164.755 64.4731C164.455 64.4785 164.155 64.484 163.856 64.4894C163.572 64.4894 163.295 64.5003 163.011 64.5003C162.45 64.5058 161.895 64.5058 161.334 64.5058C160.773 64.5058 160.217 64.5058 159.656 64.5003C159.373 64.5003 159.095 64.4949 158.812 64.4894C158.512 64.484 158.212 64.4785 157.913 64.4731C157.531 64.4676 157.156 64.4622 156.774 64.4513C155.63 64.424 154.492 64.3859 153.353 64.3423C152.847 64.3205 152.34 64.2988 151.834 64.277C148.761 64.1299 145.787 63.912 142.949 63.6233C142.938 63.6178 142.927 63.6178 142.922 63.6233C142.519 63.5852 142.116 63.5416 141.712 63.498C141.718 64.2497 141.778 64.9906 141.898 65.7096C147.971 66.3469 154.552 66.6847 161.334 66.6847C174.592 66.6847 187.078 65.4046 196.491 63.084C207.113 60.4638 212.495 56.8795 212.495 52.4291C212.495 51.0345 211.972 49.7272 210.921 48.507Z" fill="#F3D5B2"/>
<path d="M211.411 51.3397C211.411 56.8306 200.778 60.6982 186.74 62.7572C185.912 62.888 185.079 62.9969 184.229 63.1059C183.003 63.2638 181.756 63.4109 180.492 63.5417C180.133 63.5798 179.768 63.6125 179.403 63.6506C178.428 63.7432 177.442 63.8304 176.445 63.9066C175.927 63.9502 175.41 63.9883 174.887 64.0265C174.342 64.0646 173.798 64.1027 173.247 64.1354C172.697 64.1735 172.147 64.2062 171.597 64.2335C170.84 64.2716 170.082 64.3097 169.325 64.3424C168.187 64.386 167.043 64.4241 165.904 64.4514C165.523 64.4622 165.142 64.4677 164.76 64.4731C164.461 64.4786 164.161 64.484 163.862 64.4895C163.578 64.4895 163.301 64.5004 163.017 64.5004C162.456 64.5058 161.901 64.5058 161.339 64.5058C160.778 64.5058 160.223 64.5058 159.662 64.5004C159.378 64.5004 159.101 64.4949 158.817 64.4895C158.518 64.484 158.218 64.4786 157.919 64.4731C157.537 64.4677 157.161 64.4622 156.78 64.4514C155.636 64.4241 154.498 64.386 153.359 64.3424C152.853 64.3206 152.346 64.2988 151.839 64.277C148.397 64.1027 144.998 63.8467 141.718 63.4926V63.3619C141.74 55.6376 148.081 49.2697 155.805 49.2043C157.842 49.1825 159.782 49.5965 161.541 50.3537C162.587 50.8058 163.753 50.0214 163.753 48.8775V38.179C163.753 38.179 163.796 38.1844 163.818 38.1844C165.676 38.2062 167.533 38.2607 169.385 38.3315C169.745 38.3478 170.104 38.3642 170.458 38.3805C171.068 38.4077 171.673 38.4404 172.283 38.4731C189.731 39.47 205.822 42.8255 210.229 48.2837C210.997 49.237 211.406 50.2557 211.406 51.3342L211.411 51.3397Z" fill="#DC9C80"/>
<path d="M227.399 55.6376C226.789 56.1878 226.14 56.7271 225.459 57.25C213.323 66.6575 190.45 72.0068 162.031 72.0068H161.916C155.679 72.0068 149.715 71.7508 144.066 71.2496C143.586 70.5251 143.172 69.7571 142.829 68.9509C148.827 69.5283 155.211 69.8279 161.916 69.8279H162.031C190.134 69.8279 212.609 64.593 224.299 55.3979H224.305C224.877 54.9458 225.421 54.4882 225.939 54.0198L227.399 55.6376Z" fill="#F6DEC3"/>
<path d="M230.618 58.8569C229.54 54.047 226.211 49.9615 221.706 47.9187C203.088 39.4645 178.079 37.9175 163.752 37.814V42.1664C164.64 42.1718 165.512 42.1827 166.378 42.1991C167.277 42.2154 168.159 42.2372 169.031 42.259C169.162 42.259 169.292 42.2699 169.423 42.2753C169.804 42.2862 170.18 42.2971 170.551 42.3134C171.008 42.3298 171.46 42.3461 171.907 42.3679C173.89 42.4496 175.813 42.5586 177.67 42.6893C178.073 42.7165 178.477 42.7438 178.874 42.7765C179.419 42.82 179.958 42.8636 180.492 42.9072C180.955 42.9453 181.418 42.9835 181.87 43.027C184.594 43.2776 187.176 43.5772 189.622 43.9095C190.025 43.964 190.428 44.0185 190.831 44.0784C192.291 44.2908 193.707 44.5142 195.069 44.7484C195.396 44.8029 195.717 44.8573 196.039 44.9173C198.626 45.3803 201.023 45.8814 203.235 46.4044C203.485 46.4643 203.736 46.5242 203.981 46.5841C204.15 46.6223 204.319 46.6659 204.482 46.704C204.727 46.7694 204.967 46.8293 205.207 46.8892C205.588 46.9872 205.964 47.0798 206.329 47.1779C206.83 47.3141 207.326 47.4448 207.805 47.581C208.045 47.6464 208.284 47.7117 208.518 47.7826C208.992 47.9133 209.455 48.0495 209.908 48.1857C210.016 48.2183 210.125 48.251 210.229 48.2837C210.463 48.3545 210.692 48.4253 210.915 48.4962C211.019 48.5234 211.117 48.5561 211.215 48.5888C211.645 48.7249 212.065 48.8611 212.468 48.9973C212.637 49.0518 212.806 49.1062 212.969 49.1662C213.04 49.188 213.111 49.2097 213.181 49.237C213.541 49.3568 213.89 49.4821 214.227 49.602C214.489 49.6946 214.745 49.7872 214.995 49.8798C215.186 49.9506 215.377 50.0214 215.562 50.0922C216.188 50.321 216.777 50.5552 217.338 50.7786C217.496 50.8439 217.648 50.9039 217.801 50.9692C218.569 51.2852 219.266 51.5902 219.909 51.8789C220.099 51.9661 220.285 52.0532 220.464 52.1513C220.492 52.1622 220.524 52.1785 220.552 52.2003C220.737 52.2929 220.917 52.3964 221.091 52.5054C221.461 52.7233 221.81 52.9629 222.148 53.2244C222.175 53.2408 222.208 53.2626 222.235 53.2898C222.393 53.4096 222.545 53.5349 222.692 53.6711C222.861 53.8127 223.019 53.9598 223.177 54.1123C223.335 54.2649 223.488 54.4228 223.635 54.5862C223.776 54.7388 223.913 54.8913 224.043 55.0547C224.054 55.0656 224.065 55.0765 224.076 55.0928C224.114 55.1419 224.152 55.1855 224.19 55.2399C224.229 55.289 224.267 55.338 224.305 55.387C224.332 55.4251 224.365 55.4633 224.387 55.5014C224.414 55.5341 224.441 55.5668 224.463 55.6049C224.599 55.7792 224.719 55.959 224.833 56.1442C225.067 56.4983 225.274 56.8632 225.46 57.2445C225.476 57.2827 225.492 57.3099 225.503 57.3426C225.596 57.5224 225.678 57.7076 225.754 57.8982C225.841 58.0998 225.917 58.3068 225.993 58.5192C226.141 58.9387 226.266 59.369 226.364 59.8048L236.294 104.086H240.761L230.618 58.8515V58.8569Z" fill="#DC9C80"/>
<path d="M214.843 68.2265L219.685 66.4125C221.205 65.8406 222.877 66.7557 223.221 68.3409L226.206 82.0736C226.478 83.3155 225.83 84.5793 224.659 85.0805L219.642 87.2485C218.084 87.9185 216.308 86.987 215.976 85.3256L213.165 71.2443C212.909 69.9642 213.617 68.6895 214.843 68.2319V68.2265Z" fill="white"/>
<path d="M219.397 90.544L225.149 87.9729C226.255 87.4772 227.535 88.1199 227.802 89.302L228.074 90.5004C228.27 91.3774 227.835 92.2762 227.018 92.6575L221.63 95.1851C220.715 95.6154 219.626 95.2614 219.135 94.3735L218.498 93.2132C217.959 92.2327 218.373 90.9961 219.397 90.5385V90.544Z" fill="white"/>
<path d="M198.79 99.6573C197.308 104.048 194.176 107.071 190.27 108.068C189.344 108.308 188.375 108.427 187.372 108.427H187.138C183.527 108.357 180.236 106.728 177.992 104.091C176.875 102.784 176.02 101.226 175.503 99.4884C175.056 97.9795 175.917 96.3943 177.426 95.9422C178.935 95.501 180.52 96.3562 180.966 97.8651C181.941 101.161 184.823 102.686 187.247 102.73C190.085 102.768 192.324 100.997 193.392 97.8324C193.898 96.3453 195.516 95.5445 197.003 96.0457C198.496 96.5523 199.297 98.1701 198.79 99.6573Z" fill="#423B36"/>
</g>
<g opacity="0.25">
<path d="M185.586 144.625C185.564 152.349 179.223 158.723 171.499 158.788C169.462 158.804 167.522 158.396 165.763 157.639C164.717 157.187 163.551 157.965 163.551 159.109V165.978C163.066 165.984 162.582 165.984 162.091 165.984C161.601 165.984 161.084 165.984 160.588 165.978C160.092 165.973 159.596 165.968 159.106 165.962C158.616 165.957 158.131 165.946 157.646 165.935C157.036 165.924 156.437 165.908 155.838 165.891C155.484 165.88 155.13 165.87 154.781 165.853C154.28 165.837 153.784 165.815 153.288 165.793C152.798 165.771 152.308 165.75 151.823 165.722C151.278 165.695 150.739 165.663 150.2 165.63C148.947 165.554 147.716 165.461 146.507 165.363C146.109 165.33 145.717 165.298 145.33 165.259C144.295 165.167 143.282 165.063 142.279 164.954C142.214 164.954 142.149 164.938 142.083 164.933C141.724 164.889 141.37 164.851 141.016 164.807C140.531 164.753 140.046 164.693 139.572 164.628C138.995 164.551 138.423 164.475 137.862 164.393C137.094 164.284 136.336 164.17 135.59 164.05C135.1 163.974 134.615 163.892 134.136 163.81C133.656 163.723 133.177 163.642 132.709 163.554C132.327 163.489 131.951 163.418 131.581 163.342C131.385 163.304 131.189 163.266 130.998 163.228C130.682 163.168 130.366 163.102 130.05 163.037C129.157 162.852 128.285 162.656 127.425 162.46C127.414 162.46 127.403 162.454 127.392 162.454C127.038 162.372 126.695 162.285 126.352 162.203C126.052 162.127 125.752 162.056 125.458 161.98C125.404 161.969 125.349 161.953 125.295 161.942C124.892 161.839 124.494 161.735 124.096 161.626C123.715 161.528 123.345 161.425 122.974 161.321C122.958 161.316 122.936 161.31 122.92 161.305C122.544 161.201 122.168 161.092 121.798 160.983C121.422 160.874 121.057 160.765 120.692 160.651C120.327 160.542 119.967 160.428 119.613 160.313C119.254 160.199 118.9 160.084 118.551 159.965C118.202 159.85 117.854 159.73 117.505 159.611C116.928 159.409 116.361 159.207 115.8 158.995C115.658 158.941 115.511 158.886 115.364 158.832C115.059 158.712 114.754 158.597 114.449 158.478C114.15 158.358 113.85 158.238 113.556 158.118C112.608 157.737 111.687 157.339 110.794 156.925C109.312 156.255 107.907 155.558 106.578 154.833C106.311 154.686 106.049 154.545 105.788 154.397C105.445 154.207 105.107 154.011 104.775 153.82C104.731 153.787 104.682 153.766 104.639 153.738C104.263 153.515 103.892 153.292 103.527 153.068C102.912 152.692 102.318 152.311 101.746 151.924C101.637 151.848 101.534 151.777 101.425 151.707C101.152 151.521 100.885 151.336 100.618 151.151C100.608 151.14 100.602 151.135 100.591 151.129C100.319 150.933 100.052 150.742 99.785 150.546C99.2566 150.159 98.7445 149.767 98.2488 149.375C98.0527 149.217 97.8566 149.059 97.6605 148.901C97.4698 148.743 97.2792 148.585 97.0885 148.427C96.9033 148.269 96.7181 148.111 96.5329 147.953C95.7975 147.321 95.1112 146.679 94.4575 146.036C94.2941 145.878 94.1306 145.714 93.9727 145.556C93.4334 145.023 92.9268 144.478 92.442 143.939C92.1696 143.634 91.9081 143.334 91.6521 143.034C91.5214 142.882 91.3961 142.729 91.2708 142.582C91.2054 142.501 91.1346 142.413 91.0638 142.332C90.8895 142.114 90.7152 141.896 90.5463 141.683C90.5082 141.629 90.47 141.58 90.4265 141.531C90.2358 141.28 90.0506 141.035 89.8654 140.79C89.7564 140.638 89.653 140.49 89.544 140.343C89.4024 140.147 89.2662 139.951 89.13 139.755C88.9993 139.559 88.8631 139.363 88.7324 139.172C88.5635 138.916 88.3946 138.655 88.2312 138.404C87.583 137.38 87.0164 136.383 86.5262 135.424C86.2157 134.831 85.9379 134.242 85.6819 133.676C85.5293 133.338 85.3877 133.006 85.2515 132.679C85.2079 132.57 85.1644 132.461 85.1208 132.352C84.9519 131.927 84.7939 131.508 84.6469 131.105C84.6142 131.007 84.5761 130.909 84.5434 130.811C84.4726 130.609 84.4126 130.418 84.3473 130.228C84.2547 129.944 84.1675 129.667 84.0912 129.4C84.064 129.313 84.0368 129.22 84.015 129.133C83.966 128.959 83.9169 128.79 83.8733 128.626C83.7862 128.294 83.7045 127.983 83.6391 127.689C83.2578 126.033 83.2632 124.317 83.6337 122.661L87.839 103.895H107.596C108.637 103.895 109.399 102.915 109.143 101.907C108.806 100.589 108.653 99.1998 108.708 97.7672C108.719 97.5438 108.729 97.3314 108.751 97.1081V97.0808C109.383 90.0374 115.244 84.4213 122.375 84.1598C130.464 83.8656 137.121 90.337 137.121 98.3609C137.121 99.5866 136.968 100.769 136.674 101.902C136.636 102.06 136.62 102.218 136.625 102.37C136.663 103.198 137.344 103.895 138.221 103.895H160.887C162.358 103.895 163.551 105.088 163.551 106.559V130.015C163.551 131.165 164.722 131.965 165.779 131.513C167.495 130.772 169.391 130.364 171.379 130.364C179.239 130.364 185.613 136.754 185.586 144.625Z" fill="#FFF2E0"/>
<path d="M163.551 159.91V165.978C163.066 165.984 162.582 165.984 162.091 165.984C161.601 165.984 161.084 165.984 160.588 165.978C160.092 165.973 159.596 165.967 159.106 165.962C158.616 165.957 158.131 165.946 157.646 165.935C157.036 165.924 156.437 165.907 155.838 165.891C155.484 165.88 155.13 165.869 154.781 165.853C154.28 165.837 153.784 165.815 153.288 165.793C152.798 165.771 152.308 165.75 151.823 165.722C151.278 165.695 150.739 165.662 150.2 165.63C148.947 165.553 147.716 165.461 146.507 165.363C146.109 165.33 145.717 165.297 145.33 165.259C144.295 165.167 143.282 165.063 142.279 164.954C142.214 164.954 142.149 164.938 142.083 164.932C141.724 164.889 141.37 164.851 141.016 164.807C140.531 164.753 140.046 164.693 139.572 164.627C138.995 164.551 138.423 164.475 137.862 164.393C137.094 164.284 136.336 164.17 135.59 164.05C135.1 163.974 134.615 163.892 134.136 163.81C133.656 163.723 133.177 163.641 132.709 163.554C132.327 163.489 131.951 163.418 131.581 163.342C131.385 163.304 131.189 163.266 130.998 163.227C130.682 163.167 130.366 163.102 130.05 163.037C129.157 162.852 128.285 162.655 127.425 162.459C127.414 162.459 127.403 162.454 127.392 162.454C127.038 162.372 126.695 162.285 126.352 162.203C126.052 162.127 125.752 162.056 125.458 161.98C125.404 161.969 125.349 161.953 125.295 161.942C124.892 161.838 124.494 161.735 124.096 161.626C123.715 161.528 123.345 161.424 122.974 161.321C122.958 161.315 122.936 161.31 122.92 161.305C122.544 161.201 122.168 161.092 121.798 160.983C121.422 160.874 121.057 160.765 120.692 160.651C120.327 160.542 119.967 160.428 119.613 160.313C119.254 160.199 118.9 160.084 118.551 159.964C118.202 159.85 117.854 159.73 117.505 159.61C116.928 159.409 116.361 159.207 115.8 158.995C115.658 158.94 115.511 158.886 115.364 158.831C115.059 158.712 114.754 158.597 114.449 158.477C114.15 158.358 113.85 158.238 113.556 158.118C112.608 157.737 111.687 157.339 110.794 156.925C109.312 156.255 107.907 155.558 106.578 154.833C106.311 154.686 106.049 154.544 105.788 154.397C105.445 154.207 105.107 154.011 104.775 153.82C104.731 153.787 104.682 153.765 104.639 153.738C104.263 153.515 103.892 153.292 103.527 153.068C102.912 152.692 102.318 152.311 101.746 151.924C101.637 151.848 101.534 151.777 101.425 151.706C101.152 151.521 100.885 151.336 100.618 151.151C100.608 151.14 100.602 151.134 100.591 151.129C100.319 150.933 100.052 150.742 99.785 150.546C99.2566 150.159 98.7445 149.767 98.2488 149.375C98.0527 149.217 97.8566 149.059 97.6605 148.901C97.4698 148.743 97.2792 148.585 97.0885 148.427C96.9033 148.269 96.7181 148.111 96.5329 147.953C95.7975 147.321 95.1112 146.678 94.4575 146.036C94.2941 145.878 94.1306 145.714 93.9727 145.556C93.4334 145.022 92.9268 144.478 92.442 143.938C92.1696 143.633 91.9081 143.334 91.6521 143.034C91.5214 142.882 91.3961 142.729 91.2708 142.582C91.2054 142.5 91.1346 142.413 91.0638 142.332C90.8895 142.114 90.7152 141.896 90.5463 141.683C90.5082 141.629 90.47 141.58 90.4265 141.531C90.2358 141.28 90.0506 141.035 89.8654 140.79C89.7564 140.637 89.653 140.49 89.544 140.343C89.4024 140.147 89.2662 139.951 89.13 139.755C88.9993 139.559 88.8631 139.363 88.7324 139.172C88.5635 138.916 88.3946 138.655 88.2312 138.404C87.583 137.38 87.0164 136.383 86.5262 135.424C86.2157 134.831 85.9379 134.242 85.6819 133.676C85.5293 133.338 85.3877 133.006 85.2515 132.679C85.2079 132.57 85.1644 132.461 85.1208 132.352C84.9519 131.927 84.7939 131.508 84.6469 131.105C84.6142 131.007 84.5761 130.909 84.5434 130.81C84.4726 130.609 84.4126 130.418 84.3473 130.228C84.2547 129.944 84.1675 129.667 84.0912 129.4C84.064 129.312 84.0368 129.22 84.015 129.133C83.966 128.958 83.9169 128.789 83.8733 128.626C83.7862 128.294 83.7045 127.983 83.6391 127.689C83.2578 126.033 83.2632 124.317 83.6337 122.661L87.839 103.895H107.596C108.637 103.895 109.399 102.915 109.143 101.907C108.806 100.589 108.653 99.1997 108.708 97.767C108.719 97.5437 108.729 97.3313 108.751 97.1079C111.769 129.988 131.309 150.165 163.551 159.91Z" fill="#F6DEC3"/>
<path d="M162.091 165.984C161.585 165.984 161.084 165.984 160.588 165.979C160.092 165.973 159.596 165.968 159.106 165.962C158.616 165.957 158.131 165.946 157.646 165.935C157.036 165.924 156.437 165.908 155.838 165.891C155.484 165.881 155.13 165.87 154.781 165.853C154.28 165.837 153.784 165.815 153.288 165.793C152.798 165.772 152.308 165.75 151.823 165.723C151.278 165.695 150.739 165.663 150.2 165.63C148.947 165.554 147.716 165.461 146.507 165.363C146.114 165.33 145.722 165.298 145.33 165.26C144.295 165.167 143.282 165.063 142.279 164.954C142.214 164.954 142.149 164.938 142.083 164.933C141.724 164.889 141.37 164.851 141.016 164.807C140.531 164.753 140.046 164.693 139.572 164.628C138.995 164.551 138.423 164.475 137.862 164.393C137.094 164.284 136.336 164.17 135.59 164.05C135.1 163.974 134.615 163.892 134.136 163.811C133.656 163.723 133.177 163.642 132.709 163.555C132.327 163.489 131.951 163.418 131.581 163.342C131.385 163.304 131.189 163.266 130.998 163.228C130.677 163.168 130.361 163.102 130.05 163.037C129.157 162.852 128.285 162.656 127.425 162.46C127.414 162.46 127.403 162.454 127.392 162.454C127.038 162.372 126.695 162.285 126.351 162.204C126.052 162.127 125.752 162.056 125.458 161.98C125.404 161.969 125.349 161.953 125.295 161.942C124.892 161.839 124.494 161.735 124.096 161.626C123.715 161.528 123.345 161.425 122.974 161.321C122.958 161.316 122.936 161.31 122.92 161.305C122.544 161.201 122.168 161.092 121.798 160.983C121.422 160.874 121.057 160.765 120.692 160.651C120.327 160.542 119.967 160.428 119.613 160.313C119.254 160.199 118.9 160.085 118.551 159.965C118.202 159.85 117.854 159.73 117.505 159.611C116.928 159.409 116.361 159.208 115.8 158.995C115.658 158.941 115.511 158.886 115.364 158.832C115.059 158.712 114.754 158.597 114.449 158.478C114.15 158.358 113.85 158.238 113.556 158.118C112.608 157.731 111.687 157.334 110.794 156.925C109.312 156.25 107.907 155.552 106.578 154.833C106.311 154.686 106.049 154.545 105.788 154.398C105.445 154.207 105.107 154.011 104.775 153.82C104.731 153.787 104.682 153.766 104.638 153.738C104.263 153.515 103.892 153.292 103.527 153.068C102.917 152.687 102.323 152.306 101.746 151.924C101.637 151.848 101.534 151.777 101.425 151.707C101.152 151.521 100.885 151.336 100.618 151.151C100.607 151.14 100.602 151.135 100.591 151.129C100.319 150.933 100.052 150.742 99.7849 150.546C99.2565 150.16 98.7445 149.767 98.2488 149.375C98.0527 149.217 97.8566 149.059 97.6605 148.901C97.4698 148.743 97.2792 148.585 97.0885 148.427C96.9033 148.269 96.7181 148.111 96.5329 147.953C95.9827 147.474 95.4598 147 94.9532 146.515C94.7843 146.357 94.6209 146.194 94.4575 146.036C94.294 145.878 94.1306 145.715 93.9726 145.557C93.7057 145.29 93.4497 145.023 93.1882 144.75C92.9377 144.483 92.6871 144.211 92.442 143.939C92.1696 143.634 91.9081 143.334 91.6521 143.034C91.5214 142.882 91.3961 142.729 91.2708 142.582C91.2054 142.501 91.1346 142.413 91.0638 142.332C90.8895 142.114 90.7152 141.896 90.5463 141.684C90.5082 141.629 90.47 141.58 90.4264 141.531C90.2358 141.28 90.0506 141.035 89.8654 140.79C89.7564 140.638 89.6529 140.491 89.544 140.343C89.4024 140.147 89.2662 139.951 89.13 139.755C88.9993 139.559 88.8631 139.363 88.7323 139.172C88.5635 138.916 88.3946 138.655 88.2312 138.404C87.9098 137.892 87.6047 137.386 87.3215 136.89C87.0382 136.394 86.7767 135.904 86.5262 135.425C86.3736 135.125 86.2266 134.831 86.0849 134.542C85.9433 134.248 85.8071 133.959 85.6818 133.676C85.5293 133.338 85.3877 133.006 85.2515 132.679C85.2079 132.57 85.1643 132.461 85.1208 132.352C84.9519 131.927 84.7939 131.508 84.6468 131.105C84.6142 131.007 84.576 130.909 84.5433 130.811C84.4725 130.609 84.4126 130.418 84.3472 130.228C84.2546 129.945 84.1675 129.667 84.0912 129.4C84.064 129.313 84.0367 129.22 84.015 129.133C83.9659 128.959 83.9169 128.79 83.8733 128.626C83.7862 128.294 83.7045 127.984 83.6391 127.689C83.2578 126.033 83.2632 124.317 83.6336 122.662L87.839 103.896H84.9301C84.2873 103.896 83.7045 104.124 83.2414 104.5L82.2664 108.853L79.3847 121.708C78.8672 124.002 78.8727 126.409 79.3956 128.67C79.8696 130.734 80.7248 133.513 82.2664 136.667C84.8157 141.891 89.2498 148.149 96.936 153.864C111.644 164.796 133.564 170.342 162.091 170.342C162.582 170.342 163.066 170.342 163.551 170.331V165.979C163.066 165.984 162.582 165.984 162.091 165.984Z" fill="#D69865"/>
<path d="M163.551 112.747V125.761C162.908 126.273 162.183 126.561 161.41 126.561C158.817 126.561 156.714 123.293 156.714 119.257C156.714 115.22 158.817 111.946 161.41 111.946C162.183 111.946 162.908 112.235 163.551 112.747Z" fill="#665A52"/>
<path d="M145.172 103.895C142.944 106.559 139.807 108.084 136.277 108.084H136.048C130.639 107.981 125.965 104.391 124.407 99.1453C123.96 97.6364 124.821 96.0512 126.33 95.6046C127.839 95.1524 129.424 96.0131 129.871 97.522C130.851 100.818 133.733 102.343 136.151 102.386C136.309 102.386 136.467 102.386 136.625 102.37C136.664 103.198 137.344 103.895 138.221 103.895H145.172Z" fill="#423B36"/>
</g>
<path d="M140.857 63.2855V63.2964C140.857 64.0481 140.923 64.7835 141.042 65.5026C141.222 66.6356 141.538 67.7196 141.979 68.7437C142.317 69.5554 142.737 70.3234 143.221 71.0479C145.782 74.9155 150.178 77.4866 155.118 77.4703C157.177 77.4649 159.128 77.0236 160.892 76.2338C161.944 75.7599 163.131 76.5443 163.131 77.6991V101.259C163.131 102.73 161.938 103.928 160.468 103.928H137.752C136.815 103.928 136.107 103.133 136.162 102.239C136.167 102.141 136.178 102.038 136.205 101.934C136.532 100.638 136.685 99.2705 136.63 97.8596C136.341 90.5003 130.355 84.5137 123.001 84.2195C115.206 83.9036 108.74 89.863 108.222 97.462C108.201 97.7834 108.19 98.1047 108.19 98.4316C108.19 99.6409 108.342 100.812 108.625 101.934C108.882 102.942 108.119 103.928 107.073 103.928H87.2339L97.1643 59.6412C97.1643 59.6412 97.1698 59.614 97.1752 59.5977C97.2896 59.1074 97.4313 58.6226 97.611 58.1596C97.7363 57.8109 97.8834 57.4678 98.0414 57.1355H98.0468V57.1191C98.0468 57.1191 98.0686 57.0865 98.074 57.0701C98.1067 56.9993 98.1449 56.9285 98.1884 56.8577C98.2865 56.667 98.39 56.4764 98.5044 56.2911H98.5098C98.5371 56.2421 98.5643 56.1876 98.5915 56.1386C98.6242 56.0841 98.6569 56.0351 98.6896 55.9861C98.7822 55.839 98.8802 55.6974 98.9837 55.5558C99.0382 55.4741 99.0981 55.3923 99.1635 55.3106C99.1744 55.2943 99.1853 55.2779 99.1962 55.2616C99.2125 55.2453 99.2234 55.2235 99.2398 55.2071C99.3487 55.0546 99.4686 54.9075 99.5938 54.7659C99.6374 54.7114 99.6864 54.657 99.7355 54.6025C99.8172 54.5044 99.9043 54.4064 99.9969 54.3138C100.073 54.2266 100.155 54.1449 100.237 54.0686C100.324 53.976 100.411 53.8889 100.504 53.8126C100.569 53.7418 100.64 53.6764 100.711 53.6165C100.858 53.4803 101.016 53.3496 101.174 53.2243C101.348 53.0827 101.528 52.9465 101.713 52.8212C101.729 52.7994 101.746 52.7885 101.767 52.7776C101.914 52.6687 102.072 52.5652 102.23 52.4726C102.279 52.4399 102.323 52.4072 102.372 52.38C102.568 52.2601 102.77 52.1457 102.971 52.0368C103.184 51.9224 103.402 51.8189 103.619 51.7154H103.625C103.973 51.552 104.344 51.3886 104.731 51.2251C105.379 50.9473 106.076 50.6586 106.822 50.3645C107.236 50.201 107.667 50.0376 108.113 49.8688C108.952 49.5583 109.851 49.2423 110.804 48.9209H110.815C110.897 48.8882 110.979 48.861 111.066 48.8338C111.224 48.7793 111.387 48.7248 111.556 48.6704H111.562C112.019 48.5233 112.488 48.3708 112.967 48.2237C113.19 48.1529 113.408 48.0875 113.637 48.0167C114.449 47.7715 115.298 47.5264 116.186 47.2867H116.192C116.192 47.2867 116.197 47.2867 116.203 47.2813C116.53 47.1941 116.856 47.1015 117.194 47.0144C117.532 46.9272 117.875 46.8346 118.224 46.7474C118.921 46.5677 119.64 46.3934 120.375 46.2191C120.751 46.1319 121.138 46.0393 121.53 45.9521C121.917 45.865 122.315 45.7778 122.718 45.6907C123.186 45.5872 123.666 45.4891 124.156 45.3911C124.281 45.3584 124.406 45.3366 124.537 45.3094C124.706 45.2767 124.875 45.244 125.049 45.2113C125.447 45.1296 125.85 45.0533 126.258 44.9771C126.667 44.9008 127.081 44.8245 127.5 44.7483C128.143 44.6339 128.791 44.5195 129.456 44.4106C129.87 44.3452 130.289 44.2744 130.714 44.209C131.085 44.1491 131.45 44.0946 131.826 44.0401C132.746 43.8985 133.689 43.7678 134.653 43.6425C135.018 43.5935 135.383 43.5444 135.748 43.5009C137.818 43.2394 139.986 43.0051 142.252 42.8036C142.54 42.7818 142.829 42.7546 143.123 42.7328C144.022 42.6565 144.937 42.5857 145.863 42.5203C146.163 42.4985 146.463 42.4768 146.768 42.4604C146.926 42.4495 147.078 42.4386 147.236 42.4277C147.639 42.4059 148.042 42.3787 148.451 42.3569C149.061 42.3188 149.676 42.2861 150.303 42.2589C150.744 42.2371 151.191 42.2153 151.637 42.1989C152.155 42.1772 152.672 42.1554 153.201 42.139C153.931 42.1118 154.666 42.09 155.412 42.0682C156.398 42.0464 157.406 42.0246 158.425 42.0137C158.823 42.0083 159.226 42.0028 159.634 42.0028C160.261 41.9919 160.887 41.9919 161.524 41.9919C162.064 41.9919 162.597 41.9919 163.131 41.9974V48.7956C163.131 49.9559 161.938 50.724 160.876 50.2501C159.106 49.4602 157.145 49.019 155.08 49.019C147.209 49.019 140.83 55.4141 140.857 63.2855Z" fill="#FFF2E0"/>
<path d="M162.364 38.0045C161.857 37.999 161.345 37.999 160.838 37.999C160.332 37.999 159.782 37.999 159.253 38.0045C158.954 38.0045 158.659 38.0045 158.36 38.0154C156.519 38.0372 154.677 38.0862 152.842 38.1624C152.466 38.1788 152.095 38.1951 151.72 38.2115C141.931 38.6527 132.905 39.8184 125.687 41.5997C117.87 43.528 112.891 45.9739 110.816 48.9154H110.81L110.805 48.9209C110.058 49.9722 109.683 51.0835 109.683 52.2601C109.683 56.7106 115.065 60.2949 125.687 62.915C130.186 64.0263 135.388 64.8924 141.043 65.5025C140.923 64.7835 140.858 64.0481 140.858 63.2964V63.2855C140.411 63.2364 139.975 63.1874 139.539 63.1329C139.18 63.0894 138.826 63.0512 138.472 63.0022C138.259 62.9804 138.052 62.9532 137.84 62.9259C137.469 62.8769 137.104 62.8279 136.745 62.7789C136.304 62.7135 135.873 62.6536 135.438 62.5882C135.41 62.5882 135.378 62.5882 135.35 62.5773C134.909 62.5119 134.473 62.4411 134.043 62.3758C120.686 60.2132 111.862 56.4927 111.862 52.2601C111.862 50.4843 113.409 48.801 116.187 47.2867H116.192C116.192 47.2867 116.198 47.2867 116.203 47.2812C123.895 43.0923 140.988 40.1779 160.838 40.1779C161.606 40.1779 162.369 40.1834 163.132 40.1943V38.0154C162.876 38.0099 162.62 38.0045 162.364 38.0045Z" fill="#F3D5B2"/>
<path d="M163.132 38.0099C163.197 38.0154 163.257 38.0154 163.317 38.0154C163.251 38.0154 163.191 38.0099 163.132 38.0154V48.7956C163.132 49.9559 161.939 50.724 160.876 50.25C159.106 49.4602 157.145 49.0189 155.08 49.0189C147.209 49.0189 140.83 55.4141 140.857 63.2855C140.411 63.2364 139.975 63.1874 139.539 63.1329C139.18 63.0894 138.826 63.0512 138.472 63.0022C138.259 62.9804 138.052 62.9532 137.84 62.9259C137.469 62.8769 137.104 62.8279 136.745 62.7789C136.304 62.7135 135.873 62.6536 135.437 62.5882C135.41 62.5882 135.377 62.5882 135.35 62.5773C134.909 62.5119 134.473 62.4411 134.043 62.3758C120.702 60.2676 110.772 56.4763 110.772 51.1706C110.772 50.2936 111.044 49.4602 111.556 48.6703H111.562C115.424 42.6837 133.008 39.0994 151.719 38.2115C152.095 38.1951 152.466 38.1788 152.842 38.1624C154.677 38.0862 156.519 38.0372 158.36 38.0154C158.659 38.0099 158.953 38.0045 159.253 38.0045C159.781 37.999 160.31 37.999 160.838 37.999C161.367 37.999 161.857 37.999 162.363 38.0045C162.62 38.0045 162.876 38.0045 163.132 38.0045V38.0099Z" fill="#DC9C80"/>
<path d="M107.073 103.928H87.2339L97.1643 59.6416C97.1643 59.6416 97.1698 59.6143 97.1752 59.598L97.7799 56.9125L98.0414 55.7358C98.1231 55.8993 98.281 56.0845 98.5044 56.2915H98.5098C100.498 58.1327 107.476 61.4773 110.243 62.703C110.178 63.0625 110.113 63.422 110.053 63.7761C107.825 76.2395 107.253 87.4447 108.222 97.4623C108.201 97.7837 108.19 98.1051 108.19 98.4319C108.19 99.6412 108.342 100.812 108.625 101.935C108.882 102.942 108.119 103.928 107.073 103.928Z" fill="#F6DEC3"/>
<path d="M143.221 71.048C130.219 69.8659 118.937 67.3874 110.053 63.7758C105.346 61.8693 101.315 59.6468 98.0523 57.1247H98.0469C97.9543 57.0539 97.8671 56.983 97.7799 56.9122C97.1753 56.4438 96.6033 55.9589 96.0586 55.4687L97.5185 53.8508C98.0523 54.3302 98.6079 54.7987 99.1962 55.2617C108.048 62.1961 123.05 66.8754 141.979 68.7438C142.317 69.5554 142.737 70.3235 143.221 71.048Z" fill="#F6DEC3"/>
<path d="M163.132 38.0099V37.6395C162.576 37.634 162.042 37.634 161.525 37.634C147.558 37.634 121.231 38.9468 101.822 47.7497C97.3228 49.7924 93.9891 53.8779 92.9105 58.6879L82.8711 103.47C83.296 103.759 83.808 103.928 84.3637 103.928H87.2344L97.1648 59.6412C97.1648 59.6412 97.1703 59.6139 97.1757 59.5976C97.2901 59.1073 97.4318 58.6225 97.6115 58.1595C97.7368 57.8109 97.8839 57.4677 98.0419 57.1354L98.0528 57.1245C98.0528 57.1245 98.0691 57.0864 98.0745 57.0701C98.1072 56.9992 98.1454 56.9284 98.1889 56.8576C98.287 56.667 98.3905 56.4763 98.5049 56.2911C98.5321 56.2421 98.5594 56.1876 98.592 56.1386C98.6247 56.0841 98.6574 56.0351 98.6901 55.986C98.7827 55.839 98.8808 55.6973 98.9843 55.5557C99.0387 55.474 99.0986 55.3923 99.164 55.3106C99.1749 55.2942 99.1858 55.2779 99.1967 55.2615C99.213 55.2452 99.2239 55.2234 99.2403 55.2071C99.3492 55.0545 99.4691 54.9075 99.5944 54.7658C99.6379 54.7114 99.687 54.6569 99.736 54.6024C99.8177 54.5044 99.9048 54.4063 99.9975 54.3137C100.074 54.2266 100.155 54.1448 100.237 54.0686C100.324 53.976 100.411 53.8888 100.504 53.8126C100.569 53.7417 100.64 53.6764 100.711 53.6165C100.858 53.4803 101.016 53.3495 101.174 53.2242C101.348 53.0826 101.528 52.9464 101.713 52.8211C101.73 52.7994 101.746 52.7885 101.768 52.7776C101.915 52.6686 102.073 52.5651 102.231 52.4725C102.28 52.4398 102.323 52.4072 102.372 52.3799C102.569 52.2601 102.77 52.1457 102.972 52.0367C103.184 51.9223 103.402 51.8188 103.62 51.7153H103.625C103.974 51.5574 104.344 51.394 104.731 51.2251C105.379 50.9473 106.077 50.6586 106.823 50.3644C107.237 50.201 107.667 50.0376 108.114 49.8687C108.953 49.5582 109.852 49.2423 110.805 48.9209H110.816C110.898 48.8882 110.979 48.8609 111.066 48.8337C111.224 48.7792 111.388 48.7248 111.557 48.6703H111.562C112.02 48.5232 112.488 48.3707 112.968 48.2236C113.191 48.1528 113.409 48.0874 113.638 48.0166C114.449 47.7715 115.299 47.5264 116.187 47.2867H116.192C116.192 47.2867 116.198 47.2867 116.203 47.2812C116.53 47.1941 116.857 47.1015 117.195 47.0143C117.532 46.9272 117.876 46.8345 118.224 46.7474C118.921 46.5676 119.64 46.3933 120.376 46.219C120.752 46.1318 121.138 46.0392 121.531 45.9521C121.917 45.8649 122.315 45.7778 122.718 45.6906C123.187 45.5871 123.666 45.4891 124.156 45.391C124.45 45.3311 124.75 45.2712 125.05 45.2112C125.447 45.1295 125.85 45.0533 126.259 44.977C126.668 44.9008 127.082 44.8245 127.501 44.7482C128.144 44.6338 128.792 44.5194 129.457 44.4105C129.871 44.3451 130.29 44.2743 130.715 44.2089C131.085 44.149 131.45 44.0945 131.826 44.0401C132.747 43.8984 133.689 43.7677 134.653 43.6424C135.018 43.5934 135.383 43.5444 135.748 43.5008C137.818 43.2393 139.986 43.0051 142.252 42.8035C142.541 42.7817 142.83 42.7545 143.124 42.7327C144.023 42.6565 144.938 42.5856 145.864 42.5203C146.163 42.4985 146.463 42.4767 146.768 42.4604C146.926 42.4495 147.079 42.4386 147.237 42.4277C147.64 42.4059 148.043 42.3786 148.451 42.3569C149.061 42.3187 149.677 42.286 150.303 42.2588C150.745 42.237 151.191 42.2152 151.638 42.1989C152.155 42.1771 152.673 42.1553 153.201 42.139C153.931 42.1117 154.667 42.0899 155.413 42.0681C156.399 42.0464 157.407 42.0246 158.425 42.0137C158.823 42.0082 159.226 42.0028 159.635 42.0028C160.261 41.9919 160.888 41.9919 161.525 41.9919C162.064 41.9919 162.598 41.9919 163.132 41.9973V38.0153C163.192 38.0099 163.252 38.0153 163.317 38.0153C163.257 38.0153 163.197 38.0153 163.132 38.0099Z" fill="#DC9C80"/>
<path d="M147.128 99.1887C146.512 101.019 145.602 102.615 144.469 103.928H137.753C136.816 103.928 136.108 103.133 136.162 102.239C138.717 102.054 140.732 100.311 141.729 97.3693C142.23 95.8767 143.848 95.0759 145.341 95.5771C146.828 96.0837 147.629 97.7015 147.128 99.1887Z" fill="#423B36"/>
<path d="M245.01 125.151C245.01 126.758 244.798 128.354 244.384 129.89C242.897 135.381 238.506 145.927 225.836 154.817C211.422 164.927 190.477 170.145 163.573 170.336V159.033C163.573 157.873 164.766 157.099 165.828 157.573C167.598 158.363 169.559 158.804 171.624 158.804C179.501 158.804 185.88 152.409 185.847 144.527C185.82 136.732 179.381 130.331 171.586 130.353C169.527 130.358 167.577 130.799 165.812 131.589C164.76 132.063 163.573 131.279 163.573 130.129V106.564C163.573 105.094 164.766 103.901 166.236 103.901H188.952C189.992 103.901 190.755 104.881 190.499 105.889C190.319 106.592 190.194 107.316 190.128 108.057C190.068 108.683 190.047 109.321 190.074 109.969C190.363 117.323 196.349 123.309 203.703 123.604C211.825 123.936 218.514 117.443 218.514 109.392C218.514 108.188 218.362 107.011 218.079 105.894C217.823 104.881 218.585 103.901 219.631 103.901H240.707L244.558 121.076C244.858 122.422 245.01 123.789 245.01 125.151Z" fill="#DC9C80"/>
<path d="M240.532 126.959V126.97C240.473 127.417 240.391 127.863 240.287 128.305C240.249 128.457 240.211 128.604 240.173 128.751C240.135 128.893 240.097 129.035 240.053 129.182C240.053 129.203 240.048 129.225 240.037 129.247C239.955 129.519 239.873 129.797 239.781 130.086C239.683 130.396 239.574 130.723 239.454 131.056C239.394 131.224 239.329 131.393 239.269 131.568C239.209 131.736 239.138 131.911 239.067 132.09C238.931 132.445 238.778 132.804 238.62 133.175C238.539 133.36 238.457 133.55 238.375 133.736C238.119 134.302 237.836 134.89 237.526 135.49C237.319 135.887 237.101 136.296 236.866 136.71C236.752 136.911 236.632 137.124 236.507 137.331C236.447 137.445 236.376 137.56 236.305 137.674C236.207 137.843 236.098 138.017 235.989 138.186C235.739 138.589 235.477 138.998 235.2 139.406C235.091 139.564 234.976 139.728 234.862 139.891C234.562 140.327 234.246 140.763 233.909 141.204C233.571 141.645 233.222 142.092 232.852 142.538C232.672 142.756 232.487 142.974 232.302 143.192C232.171 143.35 232.035 143.508 231.893 143.661C231.762 143.808 231.632 143.955 231.495 144.102C231.103 144.538 230.695 144.973 230.27 145.404C230.106 145.567 229.943 145.736 229.774 145.899C229.088 146.575 228.363 147.25 227.595 147.915C227.464 148.024 227.339 148.138 227.208 148.247C226.544 148.814 225.852 149.375 225.127 149.925C224.91 150.094 224.692 150.263 224.468 150.426C223.962 150.802 223.433 151.178 222.899 151.543C222.742 151.652 222.584 151.761 222.426 151.864C220.829 152.943 219.097 153.989 217.218 154.991C216.848 155.187 216.472 155.383 216.09 155.579C215.693 155.786 215.295 155.982 214.886 156.179C214.707 156.266 214.532 156.353 214.353 156.44C210.676 158.189 206.487 159.785 201.72 161.152C200.93 161.381 200.124 161.599 199.307 161.811C198.196 162.1 197.057 162.378 195.881 162.639C195.38 162.753 194.873 162.862 194.361 162.971C194.012 163.048 193.653 163.124 193.288 163.189C192.988 163.249 192.689 163.309 192.384 163.369C192.079 163.429 191.774 163.483 191.468 163.543C190.853 163.652 190.232 163.767 189.605 163.87C189.295 163.925 188.974 163.979 188.652 164.028C188.015 164.132 187.372 164.23 186.718 164.328C186.065 164.42 185.406 164.513 184.736 164.6C184.316 164.655 183.891 164.709 183.461 164.763C183.058 164.813 182.649 164.862 182.241 164.911C180.133 165.15 177.943 165.352 175.677 165.515C175.426 165.537 175.176 165.553 174.92 165.57C174.614 165.591 174.309 165.613 174.004 165.63C173.525 165.657 173.035 165.69 172.544 165.711C172.076 165.739 171.602 165.76 171.123 165.782C170.153 165.831 169.162 165.869 168.159 165.897C167.658 165.913 167.157 165.924 166.65 165.935C166.356 165.946 166.057 165.951 165.763 165.951C165.468 165.962 165.169 165.967 164.869 165.967C164.439 165.973 164.009 165.978 163.573 165.984V159.033C163.573 157.873 164.766 157.099 165.828 157.573C167.598 158.363 169.559 158.804 171.624 158.804C179.501 158.804 185.88 152.409 185.847 144.527C185.82 136.732 179.381 130.331 171.586 130.353C169.527 130.358 167.577 130.799 165.812 131.589C164.76 132.063 163.573 131.279 163.573 130.129V106.564C163.573 105.094 164.766 103.901 166.236 103.901H188.952C189.992 103.901 190.755 104.881 190.499 105.889C190.319 106.592 190.194 107.316 190.128 108.057C190.068 108.683 190.047 109.321 190.074 109.969C190.363 117.323 196.349 123.309 203.703 123.604C211.825 123.936 218.514 117.443 218.514 109.392C218.514 108.188 218.362 107.011 218.079 105.894C217.823 104.881 218.585 103.901 219.631 103.901H236.24L240.304 122.029C240.358 122.291 240.413 122.547 240.456 122.808C240.685 124.181 240.712 125.581 240.532 126.959Z" fill="#FFF2E0"/>
<path d="M184.736 164.6C184.316 164.655 183.891 164.709 183.461 164.764C183.058 164.813 182.649 164.862 182.241 164.911C180.133 165.15 177.943 165.352 175.677 165.515C175.426 165.537 175.176 165.553 174.92 165.57C174.614 165.592 174.309 165.613 174.004 165.63C173.525 165.657 173.035 165.69 172.544 165.711C172.076 165.739 171.602 165.76 171.123 165.782C170.153 165.831 169.162 165.869 168.159 165.897C167.658 165.913 167.157 165.924 166.65 165.935C166.356 165.946 166.057 165.951 165.763 165.951C165.468 165.962 165.169 165.967 164.869 165.967C164.439 165.973 164.009 165.978 163.573 165.984V159.954C170.115 161.926 177.18 163.467 184.736 164.6Z" fill="#F6DEC3"/>
<path d="M166.013 119.262C166.013 122.024 165.027 124.426 163.573 125.668V112.851C165.027 114.098 166.013 116.5 166.013 119.262Z" fill="#665A52"/>
<path d="M190.499 105.889C190.319 106.592 190.194 107.316 190.129 108.057C189.235 108.275 188.304 108.389 187.345 108.389H187.111C183.428 108.318 180.084 106.63 177.834 103.901H188.952C189.992 103.901 190.755 104.881 190.499 105.889Z" fill="#423B36"/>
<path d="M161.525 37.6342C162.042 37.6342 162.576 37.6342 163.132 37.6396V48.7957C163.132 49.7163 162.38 50.3918 161.536 50.3918C161.318 50.3918 161.094 50.3482 160.876 50.2502C159.106 49.4603 157.145 49.0191 155.08 49.0191C147.209 49.0191 140.83 55.4142 140.858 63.2856V63.2965C140.858 64.0482 140.923 64.7836 141.043 65.5027C141.222 66.6357 141.538 67.7197 141.98 68.7438C142.317 69.5555 142.737 70.3235 143.222 71.048C145.776 74.9047 150.151 77.4704 155.07 77.4704C155.086 77.4704 155.102 77.4704 155.119 77.4704C157.178 77.4704 159.128 77.0237 160.893 76.2339C161.105 76.1358 161.323 76.0922 161.536 76.0922C162.374 76.0922 163.132 76.7786 163.132 77.6992V101.259C163.132 102.73 161.939 103.928 160.468 103.928H137.753C136.816 103.928 136.107 103.133 136.162 102.239C136.167 102.141 136.178 102.038 136.206 101.934C136.532 100.638 136.685 99.2706 136.63 97.8597C136.342 90.5004 130.355 84.5138 123.001 84.2196C122.805 84.2142 122.604 84.2087 122.407 84.2087C114.879 84.2087 108.724 90.0592 108.223 97.4621C108.201 97.7835 108.19 98.1048 108.19 98.4317C108.19 99.641 108.342 100.812 108.626 101.934C108.882 102.942 108.119 103.928 107.073 103.928H84.3634C83.8078 103.928 83.2957 103.759 82.8708 103.47L92.9102 58.6881C93.9888 53.8781 97.3226 49.7926 101.822 47.7499C121.231 38.947 147.558 37.6342 161.525 37.6342ZM161.525 36C147.427 36 120.833 37.3346 101.147 46.2627C96.1786 48.5179 92.5017 53.0283 91.3142 58.334L81.2748 103.111C81.1277 103.765 81.3946 104.446 81.9503 104.821C82.6638 105.306 83.4973 105.562 84.3634 105.562H107.073C108.081 105.562 109.007 105.105 109.628 104.315C110.244 103.519 110.456 102.506 110.211 101.531C109.955 100.518 109.824 99.4721 109.824 98.4317C109.824 98.143 109.835 97.8597 109.851 97.5819C109.851 97.571 109.851 97.5601 109.851 97.5492C110.314 90.9852 115.822 85.8429 122.407 85.8429C122.582 85.8429 122.756 85.8429 122.93 85.8538C129.44 86.1153 134.74 91.4155 134.991 97.9251C135.04 99.1453 134.909 100.36 134.615 101.537C134.566 101.716 134.539 101.918 134.522 102.152C134.468 103.029 134.789 103.906 135.394 104.554C136.009 105.208 136.843 105.568 137.742 105.568H160.457C162.827 105.568 164.755 103.639 164.755 101.264V77.7046C164.755 75.9179 163.306 74.4635 161.525 74.4635C161.073 74.4635 160.626 74.5615 160.206 74.7468C158.599 75.4658 156.878 75.8362 155.097 75.8417H155.053C150.842 75.8417 146.926 73.7172 144.567 70.1492C144.126 69.4901 143.755 68.8092 143.472 68.1174C143.075 67.1913 142.797 66.2326 142.639 65.2466C142.53 64.5875 142.475 63.9338 142.475 63.2965C142.464 59.9137 143.766 56.7434 146.147 54.3575C148.527 51.9715 151.692 50.6533 155.064 50.6533C156.851 50.6533 158.572 51.0182 160.195 51.7427C160.62 51.9334 161.062 52.026 161.519 52.026C163.3 52.026 164.749 50.577 164.749 48.7957V37.6396C164.749 36.7408 164.025 36.0163 163.132 36.0054C162.571 36 162.031 36 161.508 36H161.525Z" fill="#B78058"/>
<path d="M240.707 103.901L244.558 121.076C244.858 122.421 245.01 123.789 245.01 125.151C245.01 126.757 244.798 128.354 244.384 129.89C242.897 135.381 238.506 145.927 225.836 154.817C211.422 164.927 190.477 170.145 163.573 170.336V159.033C163.573 158.112 164.33 157.431 165.174 157.431C165.392 157.431 165.615 157.475 165.828 157.573C167.598 158.363 169.559 158.804 171.624 158.804C179.501 158.804 185.88 152.409 185.847 144.527C185.82 136.742 179.403 130.353 171.624 130.353C171.613 130.353 171.597 130.353 171.586 130.353C169.527 130.353 167.577 130.799 165.812 131.589C165.599 131.687 165.381 131.731 165.163 131.731C164.324 131.731 163.573 131.045 163.573 130.129V106.564C163.573 105.094 164.766 103.901 166.236 103.901H188.952C189.992 103.901 190.755 104.881 190.499 105.889C190.319 106.592 190.194 107.316 190.128 108.057C190.068 108.683 190.047 109.321 190.074 109.969C190.363 117.323 196.349 123.309 203.703 123.603C203.905 123.609 204.101 123.614 204.297 123.614C212.146 123.614 218.514 117.241 218.514 109.391C218.514 108.188 218.362 107.011 218.079 105.894C217.823 104.881 218.585 103.901 219.631 103.901H240.707ZM240.707 102.266H219.631C218.623 102.266 217.692 102.718 217.076 103.514C216.461 104.304 216.248 105.322 216.493 106.297C216.749 107.305 216.88 108.351 216.88 109.391C216.88 116.331 211.237 121.98 204.297 121.98C204.123 121.98 203.943 121.98 203.768 121.969C197.259 121.708 191.959 116.408 191.703 109.903C191.681 109.353 191.697 108.787 191.752 108.209C191.812 107.556 191.921 106.913 192.079 106.292C192.324 105.317 192.117 104.304 191.496 103.514C190.88 102.718 189.949 102.266 188.946 102.266H166.231C163.861 102.266 161.933 104.195 161.933 106.564V130.129C161.933 131.911 163.382 133.365 165.158 133.365C165.61 133.365 166.057 133.267 166.476 133.082C168.083 132.363 169.804 131.992 171.586 131.992H171.624C178.542 131.992 184.185 137.619 184.213 144.538C184.229 147.909 182.927 151.08 180.547 153.471C178.166 155.862 174.996 157.175 171.624 157.175C169.837 157.175 168.116 156.81 166.493 156.086C166.073 155.895 165.626 155.803 165.169 155.803C163.388 155.803 161.933 157.252 161.933 159.038V170.341C161.933 170.777 162.107 171.197 162.418 171.502C162.723 171.807 163.137 171.976 163.567 171.976C163.567 171.976 163.573 171.976 163.578 171.976C190.82 171.785 212.081 166.463 226.767 156.162C239.862 146.972 244.411 136.029 245.952 130.325C246.405 128.642 246.633 126.905 246.633 125.161C246.633 123.685 246.47 122.193 246.143 120.733L242.292 103.557C242.123 102.811 241.464 102.283 240.696 102.283L240.707 102.266Z" fill="#B78058"/>
<rect width="325" height="216" fill="url(#paint0_linear_312_1270)"/>
</g>
<defs>
<linearGradient id="paint0_linear_312_1270" x1="163" y1="216" x2="163" y2="-6.75141e-06" gradientUnits="userSpaceOnUse">
<stop stop-color="white"/>
<stop offset="0.166667" stop-color="white" stop-opacity="0"/>
</linearGradient>
<clipPath id="clip0_312_1270">
<rect width="325" height="216" fill="white"/>
</clipPath>
</defs>
</svg>
