<svg width="40" height="40" viewBox="0 0 40 40" fill="none" xmlns="http://www.w3.org/2000/svg">
<path d="M21.3779 5.06066C21.3779 5.06066 17.9564 5.5412 18.406 9.87273C18.6473 11.9551 20.1382 13.3989 21.2908 14.7809C22.4435 16.1629 21.5652 16.9583 21.5652 16.9583C20.7035 18.0188 17.8142 18.5579 18.8181 19.8018C19.6919 20.8159 24.2925 20.0691 24.5636 15.8326C24.7068 13.4752 22.9636 12.4279 21.8771 11.0879C20.1415 8.94699 20.5162 6.86905 22.2804 5.93779C22.601 5.76214 22.9735 5.48707 22.838 5.21532C22.665 4.87065 21.4837 5.03746 21.3768 5.06066H21.3779Z" fill="#2D2824"/>
<path d="M36.0749 20.176C34.2567 20.0269 34.3978 17.9313 34.3978 17.9313L34.2204 13.3103C32.606 13.3744 30.8473 13.276 28.9156 12.9877C28.9873 15.4976 29.038 17.7799 29.038 17.7799C29.038 17.7799 29.0897 19.3685 27.439 19.1155C25.7883 18.8625 26.0561 16.9956 26.0561 16.9956L26.4396 6.1452C26.4396 6.1452 26.4484 5.64699 26.79 5.61163C27.1316 5.57628 28.4385 5.97398 28.6214 6.54621C28.6975 6.78372 28.7823 8.76334 28.855 10.9959L34.1069 10.3431L33.9339 6.84448C33.8523 5.38517 36.0298 5.12004 36.3416 6.1209C36.5444 6.7561 37.708 18.5653 37.708 18.5653C37.708 18.5653 37.8931 20.3251 36.0749 20.1771V20.176Z" fill="#2D2824"/>
<path d="M3.79824 5.45282C3.13928 5.53346 2.62577 6.06261 2.57398 6.72653C2.25552 10.7775 2.00428 16.4821 2.94424 18.971C3.15581 19.53 3.7178 19.8714 4.31064 19.8228C8.98948 19.4416 11.8942 17.1626 11.881 11.1575C11.9724 6.57961 9.15036 4.79994 3.79824 5.45282ZM4.88916 16.6655C4.83847 13.6 4.88255 10.7068 5.03902 8.02677C5.03902 8.02677 8.31179 7.62687 9.08535 9.47945C9.85891 11.332 9.53494 16.0403 4.88916 16.6655Z" fill="#2D2824"/>
<path d="M15.5454 11.5476L16.5581 18.0786C16.73 19.1811 15.9784 20.1919 14.9845 20.2041H14.9646C13.9707 20.1919 13.2192 19.18 13.39 18.0786L14.4027 11.5465C13.347 11.4195 12.5525 10.4628 12.6252 9.3559C12.6913 8.35615 12.8699 7.1465 13.0539 5.9247C13.0814 5.74353 13.2335 5.60986 13.4131 5.60986C13.4858 5.60986 13.5531 5.63748 13.6037 5.68388C13.6544 5.73028 13.6875 5.79545 13.6952 5.86947C13.7294 6.19867 13.4748 8.60029 14.017 8.63785C14.4589 8.66657 14.6208 6.66817 14.6682 5.90261C14.6781 5.73801 14.8115 5.60986 14.9735 5.60986C15.055 5.60986 15.1277 5.6419 15.1828 5.69493C15.2379 5.74685 15.2743 5.82086 15.2787 5.90261C15.3261 6.66817 15.4881 8.66657 15.9299 8.63785C16.4721 8.60029 16.2176 6.19867 16.2517 5.86947C16.2594 5.79545 16.2936 5.73028 16.3432 5.68388C16.3928 5.63748 16.4611 5.60986 16.5338 5.60986C16.7134 5.60986 16.8655 5.74353 16.893 5.9247C17.0782 7.14761 17.2556 8.35615 17.3217 9.3559C17.3955 10.465 16.5988 11.4206 15.5432 11.5476H15.5454Z" fill="#CCB6A3"/>
<path d="M34.4686 32.9549C35.1551 32.9549 35.7116 32.4158 35.7116 31.7508C35.7116 31.0857 35.1551 30.5466 34.4686 30.5466C33.7821 30.5466 33.2256 31.0857 33.2256 31.7508C33.2256 32.4158 33.7821 32.9549 34.4686 32.9549Z" fill="#665A52"/>
<path d="M37.0085 33.668C37.2572 33.2755 37.188 32.7851 36.8541 32.5724C36.5202 32.3598 36.0479 32.5056 35.7993 32.8981C35.5507 33.2905 35.6198 33.781 35.9537 33.9936C36.2877 34.2062 36.7599 34.0604 37.0085 33.668Z" fill="#665A52"/>
<path d="M24.6459 20.7887C24.6459 20.7887 21.2243 21.2692 21.6739 25.6008C21.8954 27.3329 22.604 27.7593 23.7577 29.1402C24.9114 30.5211 24.0773 31.2723 24.0773 31.2723C23.2155 32.3328 20.8387 33.0586 21.8425 34.3025C22.5434 35.1144 25.6343 34.7974 26.9754 32.4609C27.6509 31.2855 27.5451 29.8262 26.7627 28.7193C26.3131 28.0819 25.8051 27.629 25.145 26.8159C23.4095 24.675 23.7841 22.5971 25.5484 21.6658C25.869 21.4902 26.2415 21.2151 26.1059 20.9433C25.9329 20.5987 24.7517 20.7655 24.6448 20.7887H24.6459Z" fill="#2D2824"/>
<path d="M36.4063 30.5037C34.6443 30.3413 34.7755 28.2567 34.7755 28.2567L34.7655 27.9894C33.5798 28.0689 32.3137 28.0855 30.9572 28.0303C31.1104 30.6407 31.2349 33.0854 31.2349 33.0854C31.2349 33.0854 31.333 34.6706 29.6757 34.4673C28.0184 34.2641 28.2321 32.3894 28.2321 32.3894L28.2983 21.5313C28.3104 20.283 30.3093 20.3228 30.49 21.8671C30.5528 22.1024 30.7082 23.9859 30.8426 26.1501C32.0559 25.7877 33.3308 25.5723 34.6719 25.5237L34.5308 21.7589C34.5308 21.7589 34.5 21.2032 34.857 21.138C35.214 21.0729 36.6267 21.4142 36.8669 22.035C37.1072 22.6559 37.9832 28.8963 37.9832 28.8963C38.0085 29.0797 38.1915 30.6694 36.4041 30.5037H36.4063Z" fill="#2D2824"/>
<path d="M20.7841 33.3407C20.7841 33.3407 18.7995 23.3641 18.3157 22.3754C18.2772 22.2981 18.2375 22.2252 18.1967 22.1578C17.6876 21.3149 16.5151 21.1868 15.8176 21.8816C15.7372 21.9623 15.6633 22.0473 15.5994 22.1357C15.1686 22.7422 12.763 32.1995 12.763 32.1995C12.763 32.1995 12.0876 33.956 13.3934 34.5426C14.6969 35.1292 15.0385 33.5782 15.0385 33.5782C15.0385 33.5782 15.2964 32.4591 15.6424 30.9346C16.3818 30.907 17.0926 30.8573 17.7758 30.7888L18.1405 33.0501C18.1405 33.0501 18.2683 34.9281 19.6987 34.9093C21.1279 34.8895 20.7852 33.3396 20.7852 33.3396L20.7841 33.3407ZM16.1019 28.892C16.3763 27.668 16.6584 26.3888 16.892 25.3029L17.422 28.5916L16.1019 28.892Z" fill="#2D2824"/>
<path d="M3.51167 20.8594C2.85271 20.94 2.33921 21.4692 2.28742 22.1331C1.97006 26.1841 1.71772 31.8887 2.65767 34.3776C2.86924 34.9366 3.43123 35.2779 4.02408 35.2293C8.70291 34.8482 12.4925 32.9249 12.4793 26.9187C12.5707 22.3408 8.8638 20.2065 3.51057 20.8594H3.51167ZM5.22188 32.0721C5.14034 29.1071 5.16789 26.2956 5.35522 23.6609C5.36514 23.5273 5.47092 23.4223 5.60316 23.4135C6.36349 23.3626 8.76903 23.3328 9.41807 24.886C10.1916 26.7386 9.86766 31.4468 5.22188 32.0721Z" fill="#2D2824"/>
</svg>
