<svg width="263" height="134" viewBox="0 0 263 134" fill="none" xmlns="http://www.w3.org/2000/svg">
<path d="M137.781 24.8582C137.956 24.8582 138.098 24.716 138.098 24.5405C138.098 24.3651 137.956 24.2228 137.781 24.2228C137.605 24.2228 137.463 24.3651 137.463 24.5405C137.463 24.716 137.605 24.8582 137.781 24.8582Z" fill="#A36154"/>
<path d="M139.169 25.706C139.24 25.5308 139.131 25.321 138.925 25.2374C138.719 25.1538 138.495 25.2281 138.424 25.4033C138.353 25.5785 138.462 25.7883 138.668 25.8719C138.874 25.9555 139.098 25.8812 139.169 25.706Z" fill="#A36154"/>
<path d="M127.893 127.474C110.721 127.474 94.0503 122.381 80.9445 113.133C67.9728 103.98 59.1802 91.2839 56.1906 77.3909C55.4211 73.8329 55.0293 70.1691 55.0293 66.5053C55.0293 59.9929 56.2506 53.5865 58.6543 47.4624C59.805 44.5187 61.2451 41.6243 62.9288 38.8605C68.9399 28.9844 78.0642 20.6543 89.3099 14.7702C100.863 8.72381 114.205 5.52942 127.893 5.52942C142.453 5.52942 156.509 9.11208 168.534 15.8856C170.998 17.2693 173.384 18.8011 175.629 20.4319C185.216 27.3925 192.487 36.3332 196.663 46.2941C199.381 52.7747 200.761 59.5729 200.761 66.5017C200.761 100.122 168.076 127.471 127.897 127.471L127.893 127.474Z" fill="#F7F7F7"/>
<path d="M127.893 6.05891C142.849 6.05891 156.742 9.84983 168.273 16.348C170.734 17.7317 173.084 19.2389 175.315 20.8625C184.708 27.682 191.975 36.4921 196.172 46.5024C198.798 52.7641 200.228 59.4953 200.228 66.5053C200.228 99.8858 167.843 126.945 127.893 126.945C92.3456 126.945 62.7842 105.516 56.7061 77.278C55.9507 73.7836 55.5589 70.1833 55.5589 66.5018C55.5589 59.9188 56.819 53.583 59.1486 47.6531C60.2993 44.7093 61.7218 41.8573 63.3808 39.1323C75.3289 19.5071 99.7298 6.05891 127.893 6.05891ZM127.893 5C114.117 5 100.69 8.21557 89.0665 14.2973C77.7326 20.2272 68.5377 28.6244 62.4772 38.5817C60.7758 41.3737 59.3251 44.2963 58.1638 47.2683C55.7319 53.4524 54.5 59.9259 54.5 66.5018C54.5 70.2044 54.8953 73.9071 55.6719 77.5004C58.6898 91.5239 67.5599 104.333 80.6375 113.563C87.1146 118.134 94.407 121.699 102.314 124.163C110.488 126.708 119.094 128 127.893 128C147.462 128 165.87 121.625 179.72 110.051C186.476 104.407 191.778 97.8315 195.487 90.5038C199.335 82.9044 201.287 74.8284 201.287 66.4982C201.287 59.4988 199.896 52.63 197.15 46.0859C192.939 36.0368 185.604 27.0148 175.94 19.9978C173.681 18.3529 171.277 16.8104 168.796 15.4162C156.689 8.60384 142.545 5 127.893 5Z" fill="#E5E5E5"/>
<path d="M194.534 64.2462C194.534 94.8842 164.701 119.723 127.897 119.723C95.1482 119.723 67.9164 100.055 62.3148 74.1365C61.6194 70.928 61.2559 67.6242 61.2559 64.2462C61.2559 58.2034 62.4171 52.3864 64.5632 46.9436C65.6256 44.2398 66.9352 41.6243 68.4635 39.1217C79.4692 21.1096 101.95 8.76617 127.893 8.76617C141.67 8.76617 154.472 12.2465 165.093 18.2082C167.359 19.4789 169.526 20.8625 171.581 22.352C180.232 28.6102 186.928 36.6968 190.796 45.8847C193.218 51.631 194.534 57.8116 194.534 64.2427V64.2462Z" fill="url(#paint0_linear_463_541)"/>
<path d="M190.606 66.4735C190.606 95.8301 162.53 119.627 127.893 119.627C97.0752 119.627 71.4459 100.782 66.176 75.9508C65.5195 72.8764 65.1807 69.7103 65.1807 66.4735C65.1807 60.6848 66.2713 55.1113 68.2939 49.8944C69.2928 47.3036 70.5247 44.7975 71.9648 42.4008C82.321 25.1405 103.478 13.316 127.893 13.316C140.858 13.316 152.905 16.6516 162.901 22.3626C165.036 23.5804 167.073 24.904 169.007 26.3336C177.15 32.3306 183.451 40.0783 187.09 48.8814C189.367 54.3878 190.606 60.3071 190.606 66.4735Z" fill="url(#paint1_linear_463_541)"/>
<path d="M176.13 77.7334C176.13 100.189 154.536 118.396 127.893 118.396C104.188 118.396 84.4778 103.98 80.4222 84.9834C79.9175 82.6326 79.6562 80.2112 79.6562 77.7334C79.6562 73.3036 80.4963 69.0432 82.0494 65.0511C82.8189 63.0709 83.7648 61.1543 84.8732 59.3188C92.8397 46.1142 109.112 37.0675 127.893 37.0675C137.865 37.0675 147.13 39.6195 154.822 43.9893C156.463 44.9211 158.03 45.9341 159.516 47.0248C165.778 51.6135 170.628 57.5399 173.423 64.2745C175.174 68.4855 176.127 73.0141 176.127 77.7298L176.13 77.7334Z" fill="#E5E5E5"/>
<path d="M168.163 28.0772C168.163 35.5496 166.903 44.028 165.131 51.8216C164.253 54.0983 159 55.0831 153.914 56.1138C153.247 56.2479 152.552 56.1596 151.937 55.8596L137.074 48.5849C136.527 48.3166 135.927 48.3201 135.415 48.539C134.899 48.7578 134.476 49.1955 134.292 49.7814L132.319 56.1314L130.332 63.3179C130.021 64.4368 129.248 65.3722 128.207 65.884L118.292 70.5115C117.862 70.7127 117.509 71.048 117.279 71.4645L113.202 78.9863L113.005 79.3746C112.454 80.4582 111.148 80.8959 110.061 80.3947C110.008 80.3735 109.955 80.3453 109.902 80.317L103.068 76.4908C102.663 76.2649 102.172 76.2508 101.759 76.459L98.1516 78.2627C97.7068 78.4851 97.2056 78.5733 96.7115 78.5169L80.9972 76.7379C80.443 76.6073 79.7794 75.7778 79.7053 74.8812C78.4734 72.1951 72.3847 58.881 68.8867 50.9745C69.8715 48.4578 71.0857 46.0223 72.5047 43.6927L128.888 21.6531L162.149 24.2192C164.253 25.4017 166.261 26.69 168.167 28.0772H168.163Z" fill="#D3D0CD"/>
<path d="M167.766 25.91C167.766 33.3824 166.491 43.6468 164.72 51.4404L152.486 54.1548L136.672 46.4176C136.125 46.1494 135.525 46.1529 135.013 46.3717C134.498 46.5906 134.075 47.0283 133.891 47.6142L131.918 53.9642L129.931 61.1507C129.62 62.2696 128.847 63.205 127.806 63.7168L116.684 69.1984L112.801 76.8191L112.603 77.2073C112.053 78.291 110.747 78.7287 109.659 78.2274C109.607 78.2063 109.554 78.178 109.501 78.1498L102.021 73.96L97.069 76.4343L80.1299 74.5177L79.9357 74.0906C78.7039 71.4045 71.9833 56.7138 68.4854 48.8072C69.4701 46.2906 70.6844 43.8551 72.1033 41.5254L128.487 19.4859L161.747 22.052C163.851 23.2345 165.86 24.5228 167.766 25.91Z" fill="#FFF1DF"/>
<path d="M84.4424 22.1792C88.3815 19.2531 94.5127 15.9422 97.9753 14.6574L101.713 17.5024L88.5333 24.8371L84.4424 22.1792Z" fill="white"/>
<path d="M80.4756 25.2641C81.1215 24.6958 81.831 24.1451 82.5652 23.6051L86.2679 26.2312L84.443 27.6396L80.4756 25.2676V25.2641Z" fill="white"/>
<path d="M167.423 27.2372L162.556 31.6387C154.879 32.4294 145.712 27.7913 140.114 31.8893C140.181 35.8744 137.332 43.5551 135.01 46.3753C138.494 46.6647 145.793 50.4698 152.538 53.7665L164.373 51.0769C166.322 43.4951 167.335 35.5497 167.423 27.2407V27.2372Z" fill="url(#paint2_linear_463_541)"/>
<path d="M135.013 46.3718C134.498 46.5907 134.074 47.0283 133.89 47.6143L131.917 53.9642L129.93 61.1507C129.619 62.2696 128.846 63.205 127.805 63.7168L116.683 69.1985L112.8 76.8191L110.993 78.3969L115.518 52.3159C116.129 49.1638 115.628 41.0949 118.536 39.3618C122.437 37.0428 123.788 24.5123 125.882 25.5077C128.681 33.6754 131.741 40.5513 135.013 46.3683V46.3718Z" fill="url(#paint3_linear_463_541)"/>
<path d="M110.997 78.397L109.663 78.2275C109.61 78.2064 109.557 78.1781 109.504 78.1499L102.025 73.9601L97.0724 76.4344L80.1333 74.5178L79.9392 74.0907L72.375 57.3881C97.7289 55.6726 95.6358 40.8549 105.9 51.9241C109.755 59.7918 111.198 67.116 110.997 78.397Z" fill="url(#paint4_linear_463_541)"/>
<path d="M110.609 78.9652C110.217 78.9652 109.818 78.8805 109.441 78.7075C109.398 78.6899 109.328 78.6546 109.257 78.6193L102.007 74.5601L97.3054 76.9074C97.2137 76.9533 97.1113 76.9709 97.0089 76.9603L80.0698 75.0437C79.8863 75.0225 79.7239 74.906 79.6463 74.7366L79.4521 74.3095C78.2344 71.6552 71.7185 57.081 68.1394 48.9944C68.0829 48.8638 68.0794 48.7191 68.1323 48.5885C69.3113 45.5706 70.3984 43.308 71.6515 41.2502C71.7115 41.1514 71.8032 41.0737 71.9127 41.0314L128.296 18.9918C128.37 18.9636 128.452 18.9495 128.529 18.9565L161.79 21.5226C161.867 21.5297 161.942 21.5509 162.009 21.5897C163.675 22.5251 165.161 23.6334 166.601 24.7029C167.017 25.0135 167.43 25.3206 167.854 25.6277C167.992 25.7265 168.073 25.8853 168.073 26.0548C168.073 33.8519 166.933 44.1022 165.238 51.557C165.192 51.7582 165.037 51.9135 164.836 51.9558L152.602 54.6702C152.485 54.6949 152.362 54.6808 152.256 54.6278L136.443 46.8907C136.058 46.7001 135.613 46.6895 135.218 46.8589C134.823 47.0283 134.526 47.3601 134.399 47.7696L132.426 54.1195L130.442 61.2884C130.089 62.5556 129.218 63.6109 128.042 64.1898L117.079 69.5938L113.08 77.4474C112.589 78.411 111.622 78.9652 110.612 78.9652H110.609ZM102.025 73.4306C102.113 73.4306 102.205 73.4518 102.282 73.4977L109.762 77.6874C109.79 77.7016 109.822 77.7227 109.857 77.7333C110.725 78.1357 111.714 77.7898 112.134 76.9674L116.214 68.9585C116.267 68.8561 116.348 68.7749 116.451 68.722L127.573 63.2403C128.476 62.7956 129.151 61.9837 129.422 61.006L131.41 53.8195L133.386 47.4519C133.605 46.746 134.12 46.1741 134.798 45.8847C135.476 45.5917 136.245 45.6129 136.905 45.9377L152.553 53.5936L164.278 50.9922C165.898 43.721 166.986 33.9013 167.01 26.323C166.661 26.0654 166.311 25.8077 165.965 25.55C164.522 24.4735 163.152 23.4569 161.589 22.5674L128.565 20.019L72.4633 41.9526C71.3091 43.8692 70.296 45.9871 69.1983 48.7685C72.7916 56.8904 79.2086 71.2387 80.4157 73.8683L80.4863 74.0236L96.9701 75.8873L101.781 73.4836C101.855 73.4447 101.936 73.4271 102.018 73.4271L102.025 73.4306Z" fill="#DB9B80"/>
<path d="M167.766 25.9065L167.607 26.5348L162.362 31.1446L140.1 31.3034L127.241 25.0099C126.143 24.4734 124.823 25.0417 124.46 26.21L122.924 31.1446L121.346 36.8592C121.036 37.9781 120.266 38.9135 119.221 39.4253L110.207 43.8657L106.973 50.2121C106.394 51.3487 104.986 51.7758 103.871 51.151L97.962 47.8401L93.8252 49.9085L75.5413 47.8401L68.7042 49.0967L68.4854 48.8037C69.4701 46.2871 70.6844 43.8516 72.1033 41.5219C82.3148 24.7487 103.168 13.256 127.237 13.256C140.019 13.256 151.893 16.4963 161.747 22.0485C163.851 23.231 165.86 24.5193 167.766 25.9065Z" fill="#DB9B80"/>
<path d="M104.968 51.9699C104.498 51.9699 104.036 51.8499 103.612 51.6134L97.9473 48.4402L94.0611 50.3815C93.9693 50.4274 93.867 50.4451 93.7646 50.4345L75.5583 48.3766L68.7989 49.6191C68.6013 49.6544 68.4001 49.5767 68.28 49.4144L68.0612 49.1214C67.9518 48.9732 67.9271 48.7826 67.9941 48.6131C68.9789 46.0964 70.2108 43.6186 71.6545 41.2501C76.8008 32.8 84.6085 25.67 94.2305 20.6331C104.114 15.462 115.525 12.73 127.24 12.73C139.697 12.73 151.723 15.7938 162.012 21.5896C164.119 22.7721 166.159 24.0816 168.083 25.4794C168.259 25.6064 168.337 25.8288 168.284 26.0371L168.125 26.6654C168.1 26.7677 168.04 26.863 167.963 26.9336L162.718 31.5434C162.622 31.6281 162.499 31.674 162.372 31.674L140.11 31.8329C140.025 31.8364 139.947 31.8152 139.873 31.7799L127.015 25.4864C126.63 25.2994 126.185 25.2888 125.79 25.4582C125.398 25.6276 125.098 25.9594 124.971 26.3689L123.435 31.3034L121.861 37.0004C121.512 38.264 120.636 39.3194 119.461 39.8983L110.605 44.261L107.453 50.4521C107.107 51.1298 106.514 51.6275 105.787 51.8463C105.519 51.9275 105.247 51.9664 104.975 51.9664L104.968 51.9699ZM97.965 47.3107C98.0532 47.3107 98.145 47.3318 98.2226 47.3777L104.131 50.6886C104.544 50.918 105.021 50.971 105.473 50.8333C105.924 50.6957 106.288 50.3886 106.503 49.9685L109.737 43.6221C109.79 43.5197 109.871 43.4386 109.973 43.3856L118.988 38.9452C119.892 38.5005 120.566 37.6851 120.834 36.7145L122.412 30.9998L123.951 26.0477C124.17 25.3417 124.685 24.7699 125.363 24.4805C126.04 24.1875 126.81 24.2051 127.47 24.5299L140.219 30.7669L162.16 30.6116L167.133 26.2418L167.165 26.1218C165.361 24.8264 163.455 23.6122 161.489 22.5074C151.359 16.7998 139.517 13.7819 127.237 13.7819C115.695 13.7819 104.449 16.4715 94.7176 21.5649C85.2615 26.5101 77.5985 33.5059 72.5545 41.7937C71.245 43.9433 70.112 46.1847 69.1872 48.4649L75.4454 47.3142C75.4983 47.3036 75.5477 47.3036 75.6007 47.3107L93.7293 49.3614L97.7249 47.3636C97.7991 47.3248 97.8802 47.3071 97.9614 47.3071L97.965 47.3107Z" fill="#F5DDC2"/>
<path d="M132.834 16.9517C133.302 16.9517 133.682 16.6435 133.682 16.2634C133.682 15.8832 133.302 15.5751 132.834 15.5751C132.367 15.5751 131.987 15.8832 131.987 16.2634C131.987 16.6435 132.367 16.9517 132.834 16.9517Z" fill="#A36154"/>
<path d="M128.836 20.1707C129.025 20.1707 129.178 20.0174 129.178 19.8283C129.178 19.6392 129.025 19.4859 128.836 19.4859C128.646 19.4859 128.493 19.6392 128.493 19.8283C128.493 20.0174 128.646 20.1707 128.836 20.1707Z" fill="#A36154"/>
<path d="M134.827 17.7075C135.078 17.642 135.238 17.4237 135.184 17.22C135.131 17.0163 134.885 16.9043 134.634 16.9699C134.383 17.0355 134.223 17.2537 134.276 17.4574C134.329 17.6611 134.576 17.7731 134.827 17.7075Z" fill="#A36154"/>
<path d="M117.661 19.7672C117.811 19.568 117.733 19.2561 117.487 19.0707C117.241 18.8852 116.92 18.8964 116.77 19.0956C116.62 19.2949 116.697 19.6067 116.943 19.7921C117.189 19.9776 117.51 19.9664 117.661 19.7672Z" fill="#A36154"/>
<path d="M139.082 77.8464C138.958 77.8464 138.835 77.8252 138.715 77.7793C138.676 77.7652 138.637 77.7476 138.602 77.7228C135.044 75.3685 131.599 74.1225 128.069 73.9143C128.02 73.9143 127.967 73.9002 127.921 73.8825C127.54 73.7449 127.31 73.3813 127.353 72.9789C127.395 72.5765 127.692 72.2659 128.094 72.2094L133.05 71.5035C133.138 71.4894 133.223 71.4858 133.311 71.4858C133.72 71.4858 134.126 71.6235 134.447 71.8741L139.714 75.9651C140.074 76.2439 140.211 76.6992 140.067 77.1263C139.918 77.5534 139.523 77.8429 139.082 77.8429V77.8464Z" fill="#FFF1DF"/>
<path d="M133.311 72.0188C133.604 72.0188 133.89 72.1141 134.123 72.2976L139.389 76.3885C139.802 76.7097 139.534 77.3204 139.082 77.3204C139.022 77.3204 138.959 77.3098 138.895 77.2851C135.45 75.0049 131.867 73.6142 128.101 73.3883C127.769 73.2683 127.819 72.7882 128.168 72.7388L133.124 72.0329C133.188 72.0223 133.248 72.0188 133.311 72.0188ZM133.311 70.9598C133.198 70.9598 133.085 70.9669 132.976 70.9845L128.02 71.6905C127.385 71.7823 126.894 72.2905 126.827 72.9294C126.76 73.5683 127.138 74.1684 127.741 74.3872C127.837 74.4225 127.935 74.4437 128.038 74.4472C131.472 74.6519 134.832 75.8697 138.309 78.1711C138.38 78.2169 138.454 78.2558 138.535 78.284C138.715 78.3475 138.899 78.3793 139.082 78.3793C139.749 78.3793 140.346 77.9487 140.565 77.3027C140.784 76.6603 140.579 75.972 140.039 75.552L134.772 71.4611C134.356 71.1363 133.837 70.9598 133.311 70.9598Z" fill="#DB9B80"/>
<path d="M152.1 60.0106C151.605 60.0106 151.136 59.7705 150.843 59.3717L150.141 58.4081C149.943 58.1328 149.915 57.7763 150.067 57.4762C150.222 57.1727 150.525 56.9856 150.861 56.9856C150.921 56.9856 150.984 56.9927 151.044 57.0032L156.544 58.1398C156.921 58.2175 157.175 58.5528 157.154 58.9375C157.133 59.3223 156.837 59.6223 156.452 59.6576L152.223 60.007C152.181 60.007 152.138 60.0106 152.096 60.0106H152.1Z" fill="#FFF1DF"/>
<path d="M150.861 57.5151C150.886 57.5151 150.91 57.5151 150.939 57.5222L156.438 58.6587C156.706 58.7152 156.681 59.107 156.41 59.1282L152.185 59.4776C152.156 59.4776 152.128 59.4776 152.1 59.4776C151.775 59.4776 151.465 59.3223 151.274 59.0576L150.572 58.094C150.392 57.8469 150.579 57.5151 150.861 57.5151ZM150.861 56.4562C150.324 56.4562 149.841 56.7562 149.594 57.2362C149.35 57.7163 149.396 58.2846 149.71 58.7187L150.413 59.6823C150.804 60.2189 151.433 60.5401 152.096 60.5401C152.153 60.5401 152.209 60.5401 152.269 60.533L156.494 60.1836C157.144 60.1306 157.642 59.6188 157.68 58.9693C157.719 58.3199 157.285 57.7516 156.65 57.621L151.15 56.4844C151.055 56.4632 150.956 56.4562 150.857 56.4562H150.861Z" fill="#DB9B80"/>
<path d="M165.781 117.841C165.403 117.841 165.04 117.64 164.849 117.284C164.57 116.768 164.764 116.126 165.28 115.851C166.522 115.18 167.74 114.485 168.905 113.782C169.406 113.479 170.055 113.641 170.359 114.142C170.663 114.643 170.5 115.293 169.999 115.597C168.806 116.317 167.556 117.03 166.286 117.714C166.127 117.799 165.954 117.841 165.785 117.841H165.781ZM173.017 113.461C172.678 113.461 172.346 113.299 172.142 112.999C171.813 112.515 171.937 111.855 172.42 111.527C180.546 106.003 186.906 99.2751 191.322 91.5415C191.611 91.0332 192.257 90.8567 192.766 91.1462C193.274 91.4356 193.45 92.0816 193.161 92.5898C188.583 100.609 182.004 107.57 173.61 113.278C173.426 113.401 173.222 113.461 173.017 113.461Z" fill="white"/>
<path d="M163.155 101.269C163.067 101.234 162.982 101.192 162.894 101.153C162.978 101.192 163.067 101.231 163.155 101.269Z" fill="#EC9850"/>
<path d="M170.227 89.5864C176.065 80.6308 176.057 70.2803 170.209 66.4681C164.361 62.6558 154.888 66.8254 149.049 75.7811C143.211 84.7368 143.219 95.0872 149.067 98.8994C154.915 102.712 164.389 98.5421 170.227 89.5864Z" fill="#D3D0CD"/>
<path d="M152.796 22.6556C153.045 22.6556 153.247 22.4533 153.247 22.2038C153.247 21.9542 153.045 21.752 152.796 21.752C152.546 21.752 152.344 21.9542 152.344 22.2038C152.344 22.4533 152.546 22.6556 152.796 22.6556Z" fill="#A36154"/>
<path d="M144.17 26.8856C144.309 26.3255 143.863 25.7333 143.174 25.563C142.485 25.3926 141.814 25.7086 141.676 26.2688C141.537 26.8289 141.983 27.4211 142.672 27.5915C143.361 27.7618 144.032 27.4458 144.17 26.8856Z" fill="#A36154"/>
<path d="M160 95.4206C168.291 90.5955 175.188 78.891 174.468 72.8234C174.19 70.4903 174.603 67.8783 175.912 65.7957L208.227 14.2972L206.942 12.963L173.851 65.1498C172.672 67.0205 172.104 69.4102 172.322 71.4927C172.689 74.9553 171.006 80.0064 167.766 85.008C164.437 90.1472 160.431 93.8958 156.428 95.7877C155.832 96.0701 153.403 97.0337 152.824 97.2173C154.518 97.715 158.271 96.4301 160 95.4242V95.4206Z" fill="#E5E5E5"/>
<path d="M147.268 94.6089C147.335 94.6724 147.585 94.8242 147.66 94.8842C149.915 96.6279 152.742 96.8397 155.958 95.3254C159.661 93.5747 164.027 89.5579 167.168 84.7116C170.246 79.9606 172.336 74.8707 172.004 71.7046C171.753 69.322 172.226 67.3665 173.568 65.2381L206.26 12.4512L203.358 11.4876L170.779 60.8719C168.94 63.7945 165.841 65.764 162.28 66.2723C155.856 67.1936 151.754 73.1764 149.304 76.752C149.093 77.0591 148.895 77.3521 148.704 77.6204C143.802 85.4069 144.207 92.0322 147.268 94.6053V94.6089Z" fill="#E5E5E5"/>
<path d="M147.243 94.5417C144.204 88.8412 146.929 82.8549 150.836 76.6496C153.12 73.0281 156.957 68.2665 163.356 67.3771C166.903 66.8864 170.359 63.8685 172.18 60.9777L203.358 11.4875L201.886 10.8134L170.447 60.6565C168.608 63.5791 165.421 64.9804 161.86 65.4887C155.435 66.4099 150.681 74.1082 148.955 76.5331C146.721 76.7202 140.847 90.8108 147.243 94.5382V94.5417Z" fill="#F7F7F7"/>
<g style="mix-blend-mode:multiply">
<path d="M168.03 69.9116C159.52 67.1654 146.661 89.0956 148.677 93.8501C143.446 89.3921 147.653 81.7079 150.84 76.6498C154.028 71.5917 161.059 64.7088 168.034 69.9116H168.03Z" fill="#CCCCCC"/>
</g>
<path d="M149.368 95.7525C151.228 96.4514 152.976 96.7232 156.188 95.209C159.89 93.4582 164.024 89.5543 167.165 84.708C170.243 79.957 172.347 73.2118 171.2 71.4893C171.221 74.6625 168.761 79.3535 165.852 83.8433C162.711 88.6896 158.623 92.6287 154.921 94.3759C151.709 95.8937 149.294 95.689 149.365 95.749L149.368 95.7525Z" fill="#F7F7F7"/>
<path d="M153.752 98.2444C152.082 98.2444 150.49 97.8314 149.004 97.0055C146.113 95.3959 144.313 93.2746 143.653 90.7014C142.736 87.1082 144.02 82.6078 147.585 76.9461C147.79 76.6531 147.988 76.3637 148.203 76.0531C150.773 72.3081 155.072 66.0358 162.064 65.0333C165.245 64.578 168.008 62.8202 169.65 60.2117L200.704 10.9228C201.117 10.2663 201.975 9.98035 202.744 10.2345L206.782 11.5828C207.114 11.6958 207.403 11.8935 207.615 12.1617L208.547 13.3442C208.974 13.8842 209.017 14.6043 208.657 15.1761L176.614 66.0358C175.431 67.91 174.937 70.0067 175.188 72.0998C175.982 78.7886 169.293 90.3661 161.683 95.4701C158.937 97.3126 156.258 98.2409 153.755 98.2409L153.752 98.2444ZM170.098 60.4941L170.546 60.7765C168.739 63.6461 165.7 65.5804 162.213 66.0816C155.679 67.0206 151.546 73.0493 149.075 76.6531C148.86 76.9673 148.658 77.2603 148.468 77.5356C145.079 82.9149 143.837 87.1435 144.68 90.4437C145.263 92.7239 146.894 94.6229 149.52 96.0878C153.745 98.4386 158.146 96.5784 161.094 94.6018C168.435 89.6778 174.895 78.6015 174.139 72.2339C173.864 69.9326 174.429 67.5359 175.721 65.4816L207.76 14.6184C207.88 14.4278 207.862 14.1948 207.714 14.0078L206.782 12.8253C206.701 12.7194 206.581 12.6382 206.447 12.5923L202.409 11.244C202.098 11.1381 201.756 11.244 201.601 11.4911L170.55 60.78L170.101 60.4976L170.098 60.4941Z" fill="#CCCCCC"/>
<path d="M151.737 97.2421C149.94 97.2421 148.288 96.6738 146.83 95.5372C146.601 95.3572 146.559 95.0254 146.739 94.7925C146.919 94.563 147.251 94.5207 147.483 94.7007C149.259 96.0843 152.347 97.1962 156.975 94.623C164.592 90.3909 172.181 78.4216 171.475 71.754C171.228 69.4032 171.796 67.0524 173.12 64.9487L206.493 11.9712C206.649 11.7241 206.977 11.65 207.224 11.8053C207.471 11.9606 207.545 12.2889 207.39 12.536L174.013 65.517C172.816 67.416 172.304 69.5338 172.527 71.6446C173.268 78.6475 165.397 91.1569 157.487 95.5514C155.461 96.6773 153.526 97.2421 151.737 97.2421Z" fill="#CCCCCC"/>
<defs>
<linearGradient id="paint0_linear_463_541" x1="80.1857" y1="24.2122" x2="175.601" y2="104.277" gradientUnits="userSpaceOnUse">
<stop stop-color="#F0F0F0"/>
<stop offset="1" stop-color="#DEDEDE"/>
</linearGradient>
<linearGradient id="paint1_linear_463_541" x1="127.893" y1="119.624" x2="127.893" y2="13.316" gradientUnits="userSpaceOnUse">
<stop stop-color="#CCCBC4"/>
<stop offset="0.14" stop-color="#CCCBC4" stop-opacity="0.98"/>
<stop offset="0.28" stop-color="#CCCBC4" stop-opacity="0.92"/>
<stop offset="0.42" stop-color="#CCCBC4" stop-opacity="0.82"/>
<stop offset="0.56" stop-color="#CCCBC4" stop-opacity="0.67"/>
<stop offset="0.71" stop-color="#CDCCC5" stop-opacity="0.49"/>
<stop offset="0.85" stop-color="#CDCCC5" stop-opacity="0.27"/>
<stop offset="1" stop-color="#CECDC6" stop-opacity="0"/>
</linearGradient>
<linearGradient id="paint2_linear_463_541" x1="135.013" y1="40.4983" x2="167.423" y2="40.4983" gradientUnits="userSpaceOnUse">
<stop stop-color="#DFC3AB" stop-opacity="0"/>
<stop offset="1" stop-color="#DFC3AB"/>
</linearGradient>
<linearGradient id="paint3_linear_463_541" x1="110.997" y1="51.9241" x2="135.013" y2="51.9241" gradientUnits="userSpaceOnUse">
<stop stop-color="#DFC3AB" stop-opacity="0"/>
<stop offset="1" stop-color="#DFC3AB"/>
</linearGradient>
<linearGradient id="paint4_linear_463_541" x1="72.375" y1="63.1239" x2="111.015" y2="63.1239" gradientUnits="userSpaceOnUse">
<stop stop-color="#DFC3AB" stop-opacity="0"/>
<stop offset="1" stop-color="#DFC3AB"/>
</linearGradient>
</defs>
</svg>
