<svg width="16" height="16" viewBox="0 0 16 16" fill="none" xmlns="http://www.w3.org/2000/svg">
<path fill-rule="evenodd" clip-rule="evenodd" d="M13.0547 10.4376C13.0035 11.2731 12.9629 11.9361 12.8798 12.4656C12.7945 13.0088 12.6579 13.461 12.3848 13.8566C12.1349 14.2186 11.8133 14.524 11.4402 14.7536C11.0324 15.0045 10.5771 15.1142 10.0351 15.1667L5.95127 15.1666C5.40867 15.114 4.95282 15.0041 4.54474 14.7527C4.17143 14.5228 3.84963 14.2168 3.59986 13.8542C3.32683 13.458 3.19071 13.005 3.10605 12.4612C3.0235 11.9308 2.98383 11.2669 2.93382 10.4302L2.57936 4.49984H1.99967C1.63149 4.49984 1.33301 4.20136 1.33301 3.83317C1.33301 3.46498 1.63149 3.16651 1.99967 3.16651H4.93951L5.17671 2.64614C5.31442 2.34401 5.43569 2.07792 5.55751 1.8644C5.68892 1.63408 5.84448 1.42095 6.07208 1.24634C6.37989 1.01021 6.74107 0.890494 7.12627 0.855428C7.41627 0.829028 7.70861 0.832661 7.99967 0.833128C8.34021 0.833674 8.64634 0.832048 8.89787 0.854548C9.27461 0.888241 9.62867 1.00321 9.93274 1.22998C10.1576 1.39769 10.3138 1.60299 10.4473 1.82532C10.5709 2.03135 10.6955 2.28823 10.8367 2.57964L11.1212 3.16651H13.9997C14.3679 3.16651 14.6663 3.46498 14.6663 3.83317C14.6663 4.20136 14.3679 4.49984 13.9997 4.49984H13.4181L13.0547 10.4376ZM5.83301 11.4753C5.83301 11.7514 6.05687 11.9753 6.33301 11.9753C6.60915 11.9753 6.83301 11.7514 6.83301 11.4753V7.47529C6.83301 7.19915 6.60915 6.97529 6.33301 6.97529C6.05687 6.97529 5.83301 7.19915 5.83301 7.47529V11.4753ZM9.66634 6.97529C9.94248 6.97529 10.1663 7.19915 10.1663 7.47529V11.4753C10.1663 11.7514 9.94248 11.9753 9.66634 11.9753C9.39021 11.9753 9.16634 11.7514 9.16634 11.4753V7.47529C9.16634 7.19915 9.39021 6.97529 9.66634 6.97529ZM9.63947 3.16651H6.40485C6.54225 2.86535 6.63261 2.67062 6.71561 2.52515C6.84227 2.30316 6.99774 2.20597 7.24714 2.18327C7.42434 2.16714 7.65547 2.16651 8.02267 2.16651C8.38094 2.16651 8.60621 2.16712 8.77907 2.18258C9.02227 2.20433 9.17587 2.29795 9.30407 2.5115C9.39167 2.65741 9.48834 2.85491 9.63947 3.16651Z" fill="#FF192F"/>
</svg>
