<svg width="64" height="64" viewBox="0 0 64 64" fill="none" xmlns="http://www.w3.org/2000/svg">
<rect x="0.45752" y="10.2744" width="59.3735" height="42.2937" rx="8" transform="rotate(-6.11739 0.45752 10.2744)" fill="#D8CDC3" fill-opacity="0.2"/>
<path d="M32.0508 57.0002C48.5913 57.0002 62 55.0799 62 52.7112C62 50.3424 48.5913 48.4222 32.0508 48.4222C15.5103 48.4222 2.10156 50.3424 2.10156 52.7112C2.10156 55.0799 15.5103 57.0002 32.0508 57.0002Z" fill="#D8CDC3"/>
<path d="M59.9585 38.848C59.0894 42.0731 55.415 49.7583 40.0361 51.7897C37.6126 52.1122 34.8994 52.2912 31.8612 52.2912C8.72637 52.2912 4.44903 41.8627 3.66991 38.4665C3.53288 37.8707 3.53484 37.2493 3.66991 36.6514L8.73812 13.9479C9.02001 12.6795 9.88135 11.6215 11.0579 11.0846C12.5672 10.3983 15.0161 9.49176 18.575 8.77202C21.9538 8.08963 26.3369 7.5744 31.8651 7.5744C43.2152 7.5744 49.7301 9.74544 52.6685 11.0846C53.8469 11.6215 54.7063 12.6795 54.9902 13.9459L60.0075 36.4233C60.1856 37.2237 60.1739 38.0555 59.9605 38.848H59.9585Z" fill="#FFF3E1"/>
<path d="M31.6176 6.91808C41.339 6.91808 49.2203 8.87084 49.2203 11.2798C49.2203 13.6888 41.339 15.6416 31.6176 15.6416C21.8962 15.6416 14.015 13.6888 14.015 11.2798C14.015 8.87084 21.8962 6.91808 31.6176 6.91808ZM31.6176 6.13147C26.8548 6.13147 22.368 6.5936 18.9833 7.43134C15.168 8.37724 13.2319 9.67121 13.2319 11.2779C13.2319 12.8845 15.166 14.1805 18.9833 15.1244C22.368 15.9621 26.8548 16.4243 31.6176 16.4243C36.3805 16.4243 40.8673 15.9621 44.2519 15.1244C48.0673 14.1785 50.0033 12.8845 50.0033 11.2779C50.0033 9.67121 48.0692 8.37527 44.2519 7.43134C40.8673 6.5936 36.3805 6.13147 31.6176 6.13147Z" fill="#F4D6B3"/>
<path d="M31.6129 15.6416C41.5508 15.6416 49.607 13.5127 49.607 10.8865C49.607 8.26038 41.5508 6.13147 31.6129 6.13147C21.6749 6.13147 13.6187 8.26038 13.6187 10.8865C13.6187 13.5127 21.6749 15.6416 31.6129 15.6416Z" fill="#DD9D80"/>
<path d="M40.0361 51.7901C37.6126 52.1126 34.8994 52.2916 31.8612 52.2916C8.72637 52.2916 4.44903 41.8631 3.66991 38.4669C3.53288 37.871 3.53484 37.2496 3.66991 36.6518L9.05329 12.5363C9.34693 13.1184 12.3283 14.5618 13.4383 15.0515C9.30974 37.4423 19.7672 48.7361 40.0381 51.7901H40.0361Z" fill="#F7DFC4"/>
<path d="M31.8721 18.348H31.831C21.0466 18.348 12.486 16.1947 8.33984 12.4367L8.86448 11.8526C12.8678 15.4808 21.2384 17.5614 31.831 17.5614H31.8721C42.4646 17.5614 50.8353 15.4808 54.8386 11.8526L55.3632 12.4367C51.217 16.1927 42.6565 18.348 31.8721 18.348Z" fill="#F7DFC4"/>
<path d="M31.8616 7.57322C43.2117 7.57322 49.7247 9.74426 52.665 11.0835C53.8434 11.6203 54.7028 12.6764 54.9867 13.9448L60.004 36.4202C60.1821 37.2205 60.1723 38.0544 59.959 38.8449C58.9528 42.5774 54.188 52.2881 31.8616 52.2881C9.53527 52.2881 4.44748 41.8615 3.66836 38.4654C3.53133 37.8675 3.53329 37.2481 3.66836 36.6503L8.73657 13.9448C9.02042 12.6764 9.87981 11.6203 11.0583 11.0835C13.9986 9.74426 20.5154 7.57322 31.8655 7.57322M31.8655 6C26.8463 6 17.3852 6.47393 10.4123 9.65184C8.79334 10.3893 7.59725 11.8661 7.20965 13.6026L2.13752 36.3061C1.95351 37.134 1.95351 38.0032 2.14144 38.8193C2.5956 40.7957 4.01877 44.6068 8.44685 47.9145C13.7324 51.8633 21.6097 53.8632 31.8597 53.8632C42.1096 53.8632 49.5211 51.9773 54.8027 48.2547C59.356 45.0453 60.9338 41.2401 61.4683 39.2559C61.7443 38.2313 61.7658 37.132 61.5309 36.0741L56.5136 13.5987C56.126 11.8622 54.9299 10.3853 53.311 9.64987C46.3419 6.47393 36.8809 6 31.8616 6L31.8655 6Z" fill="#DD9D80"/>
<path d="M40.8978 37.8403C41.5648 37.8403 42.1056 37.3156 42.1056 36.6683C42.1056 36.021 41.5648 35.4962 40.8978 35.4962C40.2307 35.4962 39.6899 36.021 39.6899 36.6683C39.6899 37.3156 40.2307 37.8403 40.8978 37.8403Z" fill="#665A52"/>
<path d="M43.3635 38.5366C43.6051 38.1544 43.5376 37.6765 43.2128 37.4692C42.8879 37.262 42.4287 37.4038 42.187 37.786C41.9454 38.1682 42.0129 38.646 42.3377 38.8533C42.6626 39.0606 43.1218 38.9188 43.3635 38.5366Z" fill="#665A52"/>
<path d="M39.6289 33.9609C38.8381 35.9667 36.8531 36.8143 35.1558 36.8143C34.9836 36.8143 34.8133 36.8065 34.6469 36.7888C33.5643 36.6747 32.6619 36.2283 32.0472 35.538C31.4325 36.2283 30.532 36.6747 29.4475 36.7888C29.2811 36.8065 29.1108 36.8143 28.9385 36.8143C27.2413 36.8143 25.2583 35.9667 24.4654 33.9609C24.2951 33.5263 24.5046 33.0366 24.9372 32.8655C25.3679 32.6945 25.8573 32.9049 26.0276 33.3375C26.5522 34.6688 28.0557 35.2352 29.2713 35.1093C29.7823 35.0562 30.992 34.7947 31.2152 33.5145C31.2152 33.5106 31.2172 33.5086 31.2172 33.5066C31.2211 33.4811 31.227 33.4555 31.2348 33.4299C31.272 33.2864 31.3483 33.1586 31.4501 33.0543C31.4677 33.0366 31.4834 33.0209 31.503 33.0032C31.595 32.9245 31.7046 32.8655 31.8279 32.8321C31.8534 32.8262 31.8788 32.8203 31.9043 32.8144C31.9258 32.8105 31.9493 32.8085 31.9689 32.8065C31.9943 32.8046 32.0178 32.8026 32.0433 32.8026H32.0491C32.0746 32.8026 32.0981 32.8046 32.1235 32.8065C32.1451 32.8085 32.1686 32.8105 32.1881 32.8144C32.2136 32.8183 32.239 32.8242 32.2645 32.8321C32.3389 32.8518 32.4054 32.8813 32.47 32.9186C32.5229 32.9501 32.5738 32.9855 32.6168 33.0288C32.6247 33.0347 32.6325 33.0406 32.6384 33.0504C32.6482 33.0583 32.6599 33.0701 32.6677 33.0819C32.7558 33.1782 32.8204 33.2962 32.8576 33.4299C32.8635 33.4555 32.8694 33.4811 32.8753 33.5066C32.8753 33.5106 32.8772 33.5145 32.8772 33.5184C33.1043 34.7947 34.3121 35.0562 34.8211 35.1093C36.0368 35.2372 37.5402 34.6708 38.0648 33.3375C38.2371 32.9049 38.7245 32.6925 39.1552 32.8655C39.5878 33.0366 39.7973 33.5283 39.627 33.9609H39.6289Z" fill="#665A52"/>
<path d="M22.9719 30.5898C24.6801 30.5898 26.0649 29.0561 26.0649 27.1641C26.0649 25.2722 24.6801 23.7385 22.9719 23.7385C21.2637 23.7385 19.8789 25.2722 19.8789 27.1641C19.8789 29.0561 21.2637 30.5898 22.9719 30.5898Z" fill="#423B36"/>
<path d="M40.9675 30.5898C42.6757 30.5898 44.0605 29.0561 44.0605 27.1641C44.0605 25.2722 42.6757 23.7385 40.9675 23.7385C39.2593 23.7385 37.8745 25.2722 37.8745 27.1641C37.8745 29.0561 39.2593 30.5898 40.9675 30.5898Z" fill="#423B36"/>
<path d="M50.8453 16.9826L52.5856 16.3278C53.1318 16.1213 53.7327 16.4517 53.8561 17.0239L54.9288 21.9815C55.0267 22.4299 54.7938 22.8861 54.3729 23.0671L52.5699 23.8497C52.0101 24.0916 51.3719 23.7553 51.2525 23.1555L50.2424 18.0721C50.1503 17.61 50.4048 17.1498 50.8453 16.9846V16.9826Z" fill="white"/>
<path d="M52.483 25.0399L54.5502 24.1117C54.9476 23.9327 55.4076 24.1648 55.5035 24.5915L55.6014 25.0241C55.6719 25.3407 55.5153 25.6652 55.2216 25.8029L53.2856 26.7153C52.9567 26.8707 52.5652 26.7429 52.389 26.4223L52.16 26.0035C51.9662 25.6495 52.1149 25.2031 52.483 25.0379V25.0399Z" fill="white"/>
</svg>
