<svg width="16" height="16" viewBox="0 0 16 16" fill="none" xmlns="http://www.w3.org/2000/svg">
<path fill-rule="evenodd" clip-rule="evenodd" d="M6.83008 7.99998C6.83008 7.35565 7.35248 6.83331 7.99674 6.83331H8.00274C8.64708 6.83331 9.16941 7.35565 9.16941 7.99998C9.16941 8.64431 8.64708 9.16665 8.00274 9.16665H7.99674C7.35248 9.16665 6.83008 8.64431 6.83008 7.99998Z" fill="#080808" fill-opacity="0.6"/>
<path fill-rule="evenodd" clip-rule="evenodd" d="M10.833 7.99998C10.833 7.35565 11.3553 6.83331 11.9997 6.83331H12.0056C12.6499 6.83331 13.1723 7.35565 13.1723 7.99998C13.1723 8.64431 12.6499 9.16665 12.0056 9.16665H11.9997C11.3553 9.16665 10.833 8.64431 10.833 7.99998Z" fill="#080808" fill-opacity="0.6"/>
<path fill-rule="evenodd" clip-rule="evenodd" d="M2.83301 7.99998C2.83301 7.35565 3.35534 6.83331 3.99967 6.83331H4.00566C4.64999 6.83331 5.17233 7.35565 5.17233 7.99998C5.17233 8.64431 4.64999 9.16665 4.00566 9.16665H3.99967C3.35534 9.16665 2.83301 8.64431 2.83301 7.99998Z" fill="#080808" fill-opacity="0.6"/>
</svg>
