<svg width="17" height="16" viewBox="0 0 17 16" fill="none" xmlns="http://www.w3.org/2000/svg">
<path d="M8.50016 1.83334C8.96043 1.83334 9.3335 2.20644 9.3335 2.66668L9.3335 7.16668L13.8335 7.16668C14.2938 7.16668 14.6668 7.53974 14.6668 8.00001C14.6668 8.46028 14.2938 8.83334 13.8335 8.83334L9.3335 8.83334L9.3335 13.3333C9.3335 13.7936 8.96043 14.1667 8.50016 14.1667C8.0399 14.1667 7.66683 13.7936 7.66683 13.3333L7.66683 8.83334L3.16683 8.83334C2.70659 8.83334 2.3335 8.46028 2.3335 8.00001C2.3335 7.53974 2.70659 7.16668 3.16683 7.16668L7.66683 7.16668L7.66683 2.66668C7.66683 2.20644 8.0399 1.83334 8.50016 1.83334Z" fill="#080808" fill-opacity="0.6"/>
</svg>
